<svg version="1.1" viewBox="0.0 0.0 600.0 371.0" fill="none" stroke="none" stroke-linecap="square" stroke-miterlimit="10" width="600" height="371" xmlns:xlink="http://www.w3.org/1999/xlink" xmlns="http://www.w3.org/2000/svg"><path fill="#ffffff" d="M0 0L600.0 0L600.0 371.0L0 371.0L0 0Z" fill-rule="nonzero"/><path stroke="#333333" stroke-width="1.0" stroke-linecap="butt" d="M77.5 332.5L581.5 332.5" fill-rule="nonzero"/><path stroke="#cccccc" stroke-width="1.0" stroke-linecap="butt" d="M77.5 250.5L581.5 250.5" fill-rule="nonzero"/><path stroke="#cccccc" stroke-width="1.0" stroke-linecap="butt" d="M77.5 167.5L581.5 167.5" fill-rule="nonzero"/><path stroke="#cccccc" stroke-width="1.0" stroke-linecap="butt" d="M77.5 85.5L581.5 85.5" fill-rule="nonzero"/><clipPath id="id_0"><path d="M77.55 85.28333L581.45 85.28333L581.45 332.45L77.55 332.45L77.55 85.28333Z" clip-rule="nonzero"/></clipPath><path stroke="#000000" stroke-width="2.0" stroke-linecap="butt" stroke-opacity="0.0" clip-path="url(#id_0)" d="M154.0 332.0L132.0 332.0L132.0 219.0C132.0 217.89543 132.89543 217.0 134.0 217.0L152.0 217.0C153.10457 217.0 154.0 217.89543 154.0 219.0Z" fill-rule="nonzero"/><path fill="#4285f4" clip-path="url(#id_0)" d="M154.0 332.0L132.0 332.0L132.0 219.0C132.0 217.89543 132.89543 217.0 134.0 217.0L152.0 217.0C153.10457 217.0 154.0 217.89543 154.0 219.0Z" fill-rule="nonzero"/><path stroke="#000000" stroke-width="2.0" stroke-linecap="butt" stroke-opacity="0.0" clip-path="url(#id_0)" d="M305.0 332.0L283.0 332.0L283.0 91.0C283.0 89.89543 283.89542 89.0 285.0 89.0L303.0 89.0C304.10458 89.0 305.0 89.89543 305.0 91.0Z" fill-rule="nonzero"/><path fill="#4285f4" clip-path="url(#id_0)" d="M305.0 332.0L283.0 332.0L283.0 91.0C283.0 89.89543 283.89542 89.0 285.0 89.0L303.0 89.0C304.10458 89.0 305.0 89.89543 305.0 91.0Z" fill-rule="nonzero"/><path stroke="#000000" stroke-width="2.0" stroke-linecap="butt" stroke-opacity="0.0" clip-path="url(#id_0)" d="M455.0 332.0L433.0 332.0L433.0 94.0C433.0 92.89543 433.89542 92.0 435.0 92.0L453.0 92.0C454.10458 92.0 455.0 92.89543 455.0 94.0Z" fill-rule="nonzero"/><path fill="#4285f4" clip-path="url(#id_0)" d="M455.0 332.0L433.0 332.0L433.0 94.0C433.0 92.89543 433.89542 92.0 435.0 92.0L453.0 92.0C454.10458 92.0 455.0 92.89543 455.0 94.0Z" fill-rule="nonzero"/><path stroke="#000000" stroke-width="2.0" stroke-linecap="butt" stroke-opacity="0.0" clip-path="url(#id_0)" d="M178.0 332.0L156.0 332.0L156.0 281.0C156.0 279.89542 156.89543 279.0 158.0 279.0L176.0 279.0C177.10457 279.0 178.0 279.89542 178.0 281.0Z" fill-rule="nonzero"/><path fill="#ea4335" clip-path="url(#id_0)" d="M178.0 332.0L156.0 332.0L156.0 281.0C156.0 279.89542 156.89543 279.0 158.0 279.0L176.0 279.0C177.10457 279.0 178.0 279.89542 178.0 281.0Z" fill-rule="nonzero"/><path stroke="#000000" stroke-width="2.0" stroke-linecap="butt" stroke-opacity="0.0" clip-path="url(#id_0)" d="M329.0 332.0L307.0 332.0L307.0 225.0C307.0 223.89543 307.89542 223.0 309.0 223.0L327.0 223.0C328.10458 223.0 329.0 223.89543 329.0 225.0Z" fill-rule="nonzero"/><path fill="#ea4335" clip-path="url(#id_0)" d="M329.0 332.0L307.0 332.0L307.0 225.0C307.0 223.89543 307.89542 223.0 309.0 223.0L327.0 223.0C328.10458 223.0 329.0 223.89543 329.0 225.0Z" fill-rule="nonzero"/><path stroke="#000000" stroke-width="2.0" stroke-linecap="butt" stroke-opacity="0.0" clip-path="url(#id_0)" d="M479.0 332.0L457.0 332.0L457.0 207.0C457.0 205.89543 457.89542 205.0 459.0 205.0L477.0 205.0C478.10458 205.0 479.0 205.89543 479.0 207.0Z" fill-rule="nonzero"/><path fill="#ea4335" clip-path="url(#id_0)" d="M479.0 332.0L457.0 332.0L457.0 207.0C457.0 205.89543 457.89542 205.0 459.0 205.0L477.0 205.0C478.10458 205.0 479.0 205.89543 479.0 207.0Z" fill-rule="nonzero"/><path stroke="#000000" stroke-width="2.0" stroke-linecap="butt" stroke-opacity="0.0" clip-path="url(#id_0)" d="M202.0 332.0L180.0 332.0L180.0 314.0C180.0 312.89542 180.89543 312.0 182.0 312.0L200.0 312.0C201.10457 312.0 202.0 312.89542 202.0 314.0Z" fill-rule="nonzero"/><path fill="#fbbc04" clip-path="url(#id_0)" d="M202.0 332.0L180.0 332.0L180.0 314.0C180.0 312.89542 180.89543 312.0 182.0 312.0L200.0 312.0C201.10457 312.0 202.0 312.89542 202.0 314.0Z" fill-rule="nonzero"/><path stroke="#000000" stroke-width="2.0" stroke-linecap="butt" stroke-opacity="0.0" clip-path="url(#id_0)" d="M353.0 332.0L331.0 332.0L331.0 279.0C331.0 277.89542 331.89542 277.0 333.0 277.0L351.0 277.0C352.10458 277.0 353.0 277.89542 353.0 279.0Z" fill-rule="nonzero"/><path fill="#fbbc04" clip-path="url(#id_0)" d="M353.0 332.0L331.0 332.0L331.0 279.0C331.0 277.89542 331.89542 277.0 333.0 277.0L351.0 277.0C352.10458 277.0 353.0 277.89542 353.0 279.0Z" fill-rule="nonzero"/><path stroke="#000000" stroke-width="2.0" stroke-linecap="butt" stroke-opacity="0.0" clip-path="url(#id_0)" d="M503.0 332.0L481.0 332.0L481.0 231.0C481.0 229.89543 481.89542 229.0 483.0 229.0L501.0 229.0C502.10458 229.0 503.0 229.89543 503.0 231.0Z" fill-rule="nonzero"/><path fill="#fbbc04" clip-path="url(#id_0)" d="M503.0 332.0L481.0 332.0L481.0 231.0C481.0 229.89543 481.89542 229.0 483.0 229.0L501.0 229.0C502.10458 229.0 503.0 229.89543 503.0 231.0Z" fill-rule="nonzero"/><path stroke="#000000" stroke-width="2.0" stroke-linecap="butt" stroke-opacity="0.0" clip-path="url(#id_0)" d="M226.0 332.0L204.0 332.0L204.0 323.0C204.0 321.89542 204.89543 321.0 206.0 321.0L224.0 321.0C225.10457 321.0 226.0 321.89542 226.0 323.0Z" fill-rule="nonzero"/><path fill="#34a853" clip-path="url(#id_0)" d="M226.0 332.0L204.0 332.0L204.0 323.0C204.0 321.89542 204.89543 321.0 206.0 321.0L224.0 321.0C225.10457 321.0 226.0 321.89542 226.0 323.0Z" fill-rule="nonzero"/><path stroke="#000000" stroke-width="2.0" stroke-linecap="butt" stroke-opacity="0.0" clip-path="url(#id_0)" d="M377.0 332.0L355.0 332.0L355.0 296.0C355.0 294.89542 355.89542 294.0 357.0 294.0L375.0 294.0C376.10458 294.0 377.0 294.89542 377.0 296.0Z" fill-rule="nonzero"/><path fill="#34a853" clip-path="url(#id_0)" d="M377.0 332.0L355.0 332.0L355.0 296.0C355.0 294.89542 355.89542 294.0 357.0 294.0L375.0 294.0C376.10458 294.0 377.0 294.89542 377.0 296.0Z" fill-rule="nonzero"/><path stroke="#000000" stroke-width="2.0" stroke-linecap="butt" stroke-opacity="0.0" clip-path="url(#id_0)" d="M527.0 332.0L505.0 332.0L505.0 241.0C505.0 239.89543 505.89542 239.0 507.0 239.0L525.0 239.0C526.10455 239.0 527.0 239.89543 527.0 241.0Z" fill-rule="nonzero"/><path fill="#34a853" clip-path="url(#id_0)" d="M527.0 332.0L505.0 332.0L505.0 241.0C505.0 239.89543 505.89542 239.0 507.0 239.0L525.0 239.0C526.10455 239.0 527.0 239.89543 527.0 241.0Z" fill-rule="nonzero"/><path fill="#000000" d="M29.550013 252.4448L20.956263 252.4448L20.956263 249.47604Q20.956263 248.47604 21.081263 247.9448Q21.253138 247.21042 21.690638 246.6948Q22.268763 246.0073 23.175013 245.67917Q24.065638 245.33542 25.206263 245.33542Q26.190638 245.33542 26.940638 245.5698Q27.690638 245.78854 28.190638 246.14792Q28.690638 246.5073 28.971888 246.9448Q29.253138 247.36667 29.409388 247.96042Q29.550013 248.55417 29.550013 249.33542L29.550013 252.4448ZM28.534388 251.30417L28.534388 249.47604Q28.534388 248.61667 28.378138 248.1323Q28.221888 247.64792 27.925013 247.36667Q27.534388 246.96042 26.846888 246.74167Q26.159388 246.5073 25.190638 246.5073Q23.846888 246.5073 23.128138 246.96042Q22.393763 247.39792 22.143763 248.02292Q21.971888 248.49167 21.971888 249.49167L21.971888 251.30417L28.534388 251.30417ZM29.550013 239.49167L28.628138 239.49167Q29.690638 240.22604 29.690638 241.47604Q29.690638 242.02292 29.487513 242.5073Q29.268763 242.97604 28.956263 243.21042Q28.628138 243.4448 28.159388 243.53854Q27.862513 243.60104 27.175013 243.60104L23.331263 243.60104L23.331263 242.53854L26.784388 242.53854Q27.596888 242.53854 27.893763 242.47604Q28.300013 242.3823 28.550013 242.0698Q28.784388 241.74167 28.784388 241.2573Q28.784388 240.78854 28.550013 240.3823Q28.300013 239.96042 27.878138 239.78854Q27.456263 239.60104 26.659388 239.60104L23.331263 239.60104L23.331263 238.55417L29.550013 238.55417L29.550013 239.49167ZM29.550013 236.58542L23.331263 236.58542L23.331263 235.6323L24.268763 235.6323Q23.612513 235.27292 23.409388 234.97604Q23.190638 234.66354 23.190638 234.28854Q23.190638 233.7573 23.518763 233.21042L24.503138 233.5698Q24.268763 233.96042 24.268763 234.33542Q24.268763 234.6948 24.487513 234.97604Q24.690638 235.24167 25.065638 235.35104Q25.628138 235.53854 26.284388 235.53854L29.550013 235.53854L29.550013 236.58542ZM28.784388 228.5073Q29.284388 229.10104 29.487513 229.64792Q29.690638 230.17917 29.690638 230.80417Q29.690638 231.83542 29.190638 232.3823Q28.690638 232.92917 27.909388 232.92917Q27.456263 232.92917 27.081263 232.72604Q26.690638 232.52292 26.471888 232.17917Q26.237513 231.83542 26.128138 231.41354Q26.034388 231.11667 25.956263 230.47604Q25.815638 229.21042 25.596888 228.60104Q25.378138 228.60104 25.331263 228.60104Q24.675013 228.60104 24.409388 228.89792Q24.065638 229.30417 24.065638 230.10104Q24.065638 230.83542 24.331263 231.1948Q24.581263 231.55417 25.237513 231.72604L25.096888 232.7573Q24.440638 232.61667 24.034388 232.28854Q23.628138 231.96042 23.409388 231.35104Q23.190638 230.74167 23.190638 229.9448Q23.190638 229.14792 23.378138 228.64792Q23.565638 228.14792 23.846888 227.91354Q24.128138 227.67917 24.565638 227.58542Q24.831263 227.53854 25.534388 227.53854L26.940638 227.53854Q28.409388 227.53854 28.800013 227.47604Q29.190638 227.39792 29.550013 227.1948L29.550013 228.30417Q29.221888 228.46042 28.784388 228.5073ZM26.425013 228.60104Q26.659388 229.17917 26.831263 230.3198Q26.925013 230.97604 27.050013 231.24167Q27.159388 231.5073 27.378138 231.66354Q27.596888 231.80417 27.878138 231.80417Q28.300013 231.80417 28.581263 231.49167Q28.862513 231.16354 28.862513 230.55417Q28.862513 229.9448 28.596888 229.47604Q28.331263 228.99167 27.862513 228.77292Q27.503138 228.60104 26.815638 228.60104L26.425013 228.60104ZM28.612513 223.27292L29.534388 223.11667Q29.628138 223.5698 29.628138 223.91354Q29.628138 224.49167 29.456263 224.80417Q29.268763 225.11667 28.971888 225.2573Q28.675013 225.3823 27.721888 225.3823L24.143763 225.3823L24.143763 226.14792L23.331263 226.14792L23.331263 225.3823L21.784388 225.3823L21.159388 224.33542L23.331263 224.33542L23.331263 223.27292L24.143763 223.27292L24.143763 224.33542L27.784388 224.33542Q28.237513 224.33542 28.362513 224.28854Q28.487513 224.22604 28.565638 224.10104Q28.643763 223.97604 28.643763 223.74167Q28.643763 223.55417 28.612513 223.27292ZM22.175013 222.5698L20.956263 222.5698L20.956263 221.5073L22.175013 221.5073L22.175013 222.5698ZM29.550013 222.5698L23.331263 222.5698L23.331263 221.5073L29.550013 221.5073L29.550013 222.5698ZM26.440638 219.96042Q24.706263 219.96042 23.878138 219.0073Q23.190638 218.21042 23.190638 217.05417Q23.190638 215.77292 24.034388 214.96042Q24.862513 214.1323 26.346888 214.1323Q27.550013 214.1323 28.237513 214.49167Q28.925013 214.85104 29.315638 215.55417Q29.690638 216.24167 29.690638 217.05417Q29.690638 218.35104 28.862513 219.16354Q28.018763 219.96042 26.440638 219.96042ZM26.440638 218.8823Q27.628138 218.8823 28.221888 218.36667Q28.815638 217.83542 28.815638 217.05417Q28.815638 216.2573 28.221888 215.74167Q27.628138 215.22604 26.409388 215.22604Q25.253138 215.22604 24.659388 215.7573Q24.065638 216.27292 24.065638 217.05417Q24.065638 217.83542 24.659388 218.36667Q25.237513 218.8823 26.440638 218.8823ZM29.550013 212.5698L23.331263 212.5698L23.331263 211.6323L24.206263 211.6323Q23.190638 210.9448 23.190638 209.64792Q23.190638 209.08542 23.393763 208.61667Q23.596888 208.1323 23.925013 207.89792Q24.253138 207.66354 24.690638 207.5698Q24.987513 207.52292 25.721888 207.52292L29.550013 207.52292L29.550013 208.5698L25.768763 208.5698Q25.112513 208.5698 24.800013 208.6948Q24.487513 208.8198 24.300013 209.1323Q24.096888 209.4448 24.096888 209.86667Q24.096888 210.53854 24.534388 211.03854Q24.956263 211.52292 26.143763 211.52292L29.550013 211.52292L29.550013 212.5698ZM32.08126 200.55417Q30.971888 201.42917 29.503138 202.03854Q28.018763 202.6323 26.440638 202.6323Q25.050013 202.6323 23.768763 202.1948Q22.284388 201.66354 20.815638 200.55417L20.815638 199.80417Q22.034388 200.5073 22.550013 200.74167Q23.362513 201.10104 24.237513 201.30417Q25.331263 201.55417 26.440638 201.55417Q29.268763 201.55417 32.08126 199.80417L32.08126 200.55417ZM29.550013 198.5698L23.331263 198.5698L23.331263 197.6323L24.206263 197.6323Q23.737513 197.33542 23.471888 196.85104Q23.190638 196.36667 23.190638 195.74167Q23.190638 195.05417 23.471888 194.61667Q23.753138 194.16354 24.268763 193.99167Q23.190638 193.24167 23.190638 192.0698Q23.190638 191.1323 23.706263 190.64792Q24.206263 190.14792 25.284388 190.14792L29.550013 190.14792L29.550013 191.1948L25.628138 191.1948Q25.003138 191.1948 24.721888 191.30417Q24.440638 191.39792 24.268763 191.66354Q24.096888 191.92917 24.096888 192.30417Q24.096888 192.96042 24.534388 193.39792Q24.971888 193.8198 25.940638 193.8198L29.550013 193.8198L29.550013 194.8823L25.503138 194.8823Q24.800013 194.8823 24.456263 195.14792Q24.096888 195.39792 24.096888 195.97604Q24.096888 196.42917 24.331263 196.80417Q24.565638 197.17917 25.018763 197.35104Q25.471888 197.52292 26.315638 197.52292L29.550013 197.52292L29.550013 198.5698ZM27.690638 187.99167L27.534388 186.96042Q28.159388 186.86667 28.487513 186.47604Q28.815638 186.0698 28.815638 185.33542Q28.815638 184.61667 28.534388 184.27292Q28.237513 183.91354 27.831263 183.91354Q27.471888 183.91354 27.268763 184.22604Q27.128138 184.4448 26.909388 185.30417Q26.612513 186.46042 26.409388 186.91354Q26.190638 187.35104 25.815638 187.58542Q25.440638 187.8198 24.971888 187.8198Q24.565638 187.8198 24.206263 187.6323Q23.846888 187.4448 23.612513 187.11667Q23.440638 186.86667 23.315638 186.4448Q23.190638 186.02292 23.190638 185.52292Q23.190638 184.80417 23.409388 184.2573Q23.612513 183.6948 23.971888 183.42917Q24.331263 183.16354 24.925013 183.0698L25.065638 184.10104Q24.596888 184.16354 24.331263 184.5073Q24.050013 184.83542 24.050013 185.46042Q24.050013 186.17917 24.300013 186.49167Q24.534388 186.80417 24.862513 186.80417Q25.065638 186.80417 25.221888 186.67917Q25.393763 186.53854 25.503138 186.27292Q25.565638 186.11667 25.768763 185.33542Q26.081263 184.21042 26.268763 183.77292Q26.456263 183.33542 26.815638 183.08542Q27.175013 182.83542 27.721888 182.83542Q28.253138 182.83542 28.721888 183.14792Q29.175013 183.4448 29.440638 184.02292Q29.690638 184.60104 29.690638 185.33542Q29.690638 186.55417 29.190638 187.1948Q28.675013 187.8198 27.690638 187.99167ZM32.08126 179.8823L32.08126 180.6323Q29.268763 178.8823 26.440638 178.8823Q25.346888 178.8823 24.253138 179.1323Q23.378138 179.33542 22.565638 179.6948Q22.050013 179.92917 20.815638 180.6323L20.815638 179.8823Q22.284388 178.78854 23.768763 178.2573Q25.050013 177.80417 26.440638 177.80417Q28.018763 177.80417 29.503138 178.41354Q30.971888 179.02292 32.08126 179.8823Z" fill-rule="nonzero"/><path fill="#000000" d="M65.05 332.21564Q65.05 330.6844 65.3625 329.7625Q65.675 328.825 66.28438 328.325Q66.90938 327.825 67.84688 327.825Q68.53438 327.825 69.05 328.10626Q69.58125 328.3875 69.925 328.91876Q70.26875 329.4344 70.45625 330.1844Q70.64375 330.9344 70.64375 332.21564Q70.64375 333.73126 70.33125 334.65314Q70.03438 335.575 69.40938 336.09064Q68.8 336.59064 67.84688 336.59064Q66.6125 336.59064 65.89375 335.7Q65.05 334.6375 65.05 332.21564ZM66.12813 332.21564Q66.12813 334.325 66.62813 335.02814Q67.12813 335.73126 67.84688 335.73126Q68.58125 335.73126 69.06563 335.02814Q69.56563 334.325 69.56563 332.21564Q69.56563 330.09064 69.06563 329.40314Q68.58125 328.7 67.83125 328.7Q67.1125 328.7 66.675 329.3094Q66.12813 330.09064 66.12813 332.21564Z" fill-rule="nonzero"/><path fill="#000000" d="M63.596874 253.04549L63.596874 254.06111L57.909374 254.06111Q57.909374 253.68611 58.034374 253.32674Q58.253124 252.74861 58.721874 252.18611Q59.20625 251.62361 60.1125 250.88924Q61.51875 249.73299 62.003124 249.06111Q62.503124 248.38924 62.503124 247.79549Q62.503124 247.17049 62.05 246.74861Q61.596874 246.31111 60.878124 246.31111Q60.1125 246.31111 59.659374 246.76424Q59.20625 247.21736 59.190624 248.02986L58.1125 247.92049Q58.221874 246.70174 58.940624 246.07674Q59.675 245.43611 60.909374 245.43611Q62.14375 245.43611 62.8625 246.12361Q63.58125 246.81111 63.58125 247.82674Q63.58125 248.34236 63.3625 248.84236Q63.159374 249.32674 62.659374 249.88924Q62.175 250.43611 61.05 251.38924Q60.096874 252.18611 59.815624 252.48299Q59.55 252.76424 59.378124 253.04549L63.596874 253.04549ZM65.05 249.82674Q65.05 248.29549 65.3625 247.37361Q65.675 246.43611 66.28438 245.93611Q66.90938 245.43611 67.84688 245.43611Q68.53438 245.43611 69.05 245.71736Q69.58125 245.99861 69.925 246.52986Q70.26875 247.04549 70.45625 247.79549Q70.64375 248.54549 70.64375 249.82674Q70.64375 251.34236 70.33125 252.26424Q70.03438 253.18611 69.40938 253.70174Q68.8 254.20174 67.84688 254.20174Q66.6125 254.20174 65.89375 253.31111Q65.05 252.24861 65.05 249.82674ZM66.12813 249.82674Q66.12813 251.93611 66.62813 252.63924Q67.12813 253.34236 67.84688 253.34236Q68.58125 253.34236 69.06563 252.63924Q69.56563 251.93611 69.56563 249.82674Q69.56563 247.70174 69.06563 247.01424Q68.58125 246.31111 67.83125 246.31111Q67.1125 246.31111 66.675 246.92049Q66.12813 247.70174 66.12813 249.82674Z" fill-rule="nonzero"/><path fill="#000000" d="M61.425 171.67223L61.425 169.60973L57.70625 169.60973L57.70625 168.64098L61.628124 163.07848L62.4875 163.07848L62.4875 168.64098L63.64375 168.64098L63.64375 169.60973L62.4875 169.60973L62.4875 171.67223L61.425 171.67223ZM61.425 168.64098L61.425 164.7816L58.7375 168.64098L61.425 168.64098ZM65.05 167.43785Q65.05 165.9066 65.3625 164.98473Q65.675 164.04723 66.28438 163.54723Q66.90938 163.04723 67.84688 163.04723Q68.53438 163.04723 69.05 163.32848Q69.58125 163.60973 69.925 164.14098Q70.26875 164.6566 70.45625 165.4066Q70.64375 166.1566 70.64375 167.43785Q70.64375 168.95348 70.33125 169.87535Q70.03438 170.79723 69.40938 171.31285Q68.8 171.81285 67.84688 171.81285Q66.6125 171.81285 65.89375 170.92223Q65.05 169.85973 65.05 167.43785ZM66.12813 167.43785Q66.12813 169.54723 66.62813 170.25035Q67.12813 170.95348 67.84688 170.95348Q68.58125 170.95348 69.06563 170.25035Q69.56563 169.54723 69.56563 167.43785Q69.56563 165.31285 69.06563 164.62535Q68.58125 163.92223 67.83125 163.92223Q67.1125 163.92223 66.675 164.5316Q66.12813 165.31285 66.12813 167.43785Z" fill-rule="nonzero"/><path fill="#000000" d="M63.51875 82.79896L62.471874 82.87708Q62.33125 82.25208 62.08125 81.97083Q61.64375 81.51771 61.01875 81.51771Q60.51875 81.51771 60.128124 81.79896Q59.64375 82.17396 59.346874 82.87708Q59.065624 83.56458 59.05 84.84583Q59.425 84.26771 59.971874 83.98646Q60.534374 83.70521 61.14375 83.70521Q62.190624 83.70521 62.925 84.48646Q63.675 85.26771 63.675 86.48646Q63.675 87.29896 63.315624 88.00208Q62.971874 88.68958 62.3625 89.06458Q61.753124 89.42396 60.9875 89.42396Q59.659374 89.42396 58.83125 88.45521Q58.003124 87.48646 58.003124 85.26771Q58.003124 82.76771 58.925 81.64271Q59.721874 80.65833 61.08125 80.65833Q62.096874 80.65833 62.7375 81.23646Q63.39375 81.79896 63.51875 82.79896ZM59.221874 86.50208Q59.221874 87.04896 59.440624 87.54896Q59.675 88.03333 60.08125 88.29896Q60.503124 88.56458 60.971874 88.56458Q61.628124 88.56458 62.1125 88.03333Q62.596874 87.48646 62.596874 86.56458Q62.596874 85.67396 62.1125 85.15833Q61.64375 84.64271 60.925 84.64271Q60.20625 84.64271 59.70625 85.15833Q59.221874 85.67396 59.221874 86.50208ZM65.05 85.04896Q65.05 83.51771 65.3625 82.59583Q65.675 81.65833 66.28438 81.15833Q66.90938 80.65833 67.84688 80.65833Q68.53438 80.65833 69.05 80.93958Q69.58125 81.22083 69.925 81.75208Q70.26875 82.26771 70.45625 83.01771Q70.64375 83.76771 70.64375 85.04896Q70.64375 86.56458 70.33125 87.48646Q70.03438 88.40833 69.40938 88.92396Q68.8 89.42396 67.84688 89.42396Q66.6125 89.42396 65.89375 88.53333Q65.05 87.47083 65.05 85.04896ZM66.12813 85.04896Q66.12813 87.15833 66.62813 87.86146Q67.12813 88.56458 67.84688 88.56458Q68.58125 88.56458 69.06563 87.86146Q69.56563 87.15833 69.56563 85.04896Q69.56563 82.92396 69.06563 82.23646Q68.58125 81.53333 67.83125 81.53333Q67.1125 81.53333 66.675 82.14271Q66.12813 82.92396 66.12813 85.04896Z" fill-rule="nonzero"/><path fill="#000000" d="M164.37897 342.075L164.37897 340.85626L165.44147 340.85626L165.44147 342.075L164.37897 342.075ZM164.37897 349.45L164.37897 343.23126L165.44147 343.23126L165.44147 349.45L164.37897 349.45ZM167.37897 351.84064L167.37897 343.23126L168.33209 343.23126L168.33209 344.02814Q168.67584 343.5594 169.09772 343.325Q169.53522 343.09064 170.14459 343.09064Q170.94147 343.09064 171.55084 343.4969Q172.16022 343.90314 172.45709 344.65314Q172.76959 345.40314 172.76959 346.29376Q172.76959 347.2469 172.42584 348.0125Q172.09772 348.77814 171.44147 349.1844Q170.78522 349.59064 170.06647 349.59064Q169.53522 349.59064 169.11334 349.3719Q168.69147 349.1375 168.42584 348.8094L168.42584 351.84064L167.37897 351.84064ZM168.33209 346.3719Q168.33209 347.575 168.81647 348.15314Q169.30084 348.71564 169.98834 348.71564Q170.69147 348.71564 171.19147 348.1219Q171.69147 347.52814 171.69147 346.27814Q171.69147 345.09064 171.20709 344.5125Q170.72272 343.91876 170.03522 343.91876Q169.36334 343.91876 168.84772 344.54376Q168.33209 345.16876 168.33209 346.3719ZM173.95709 346.8719L173.95709 345.8094L177.20709 345.8094L177.20709 346.8719L173.95709 346.8719ZM182.44147 348.6844Q181.84772 349.1844 181.30084 349.3875Q180.76959 349.59064 180.14459 349.59064Q179.11334 349.59064 178.56647 349.09064Q178.01959 348.59064 178.01959 347.8094Q178.01959 347.35626 178.22272 346.98126Q178.42584 346.59064 178.76959 346.3719Q179.11334 346.1375 179.53522 346.02814Q179.83209 345.9344 180.47272 345.85626Q181.73834 345.71564 182.34772 345.4969Q182.34772 345.27814 182.34772 345.23126Q182.34772 344.575 182.05084 344.3094Q181.64459 343.96564 180.84772 343.96564Q180.11334 343.96564 179.75397 344.23126Q179.39459 344.48126 179.22272 345.1375L178.19147 344.9969Q178.33209 344.34064 178.66022 343.9344Q178.98834 343.52814 179.59772 343.3094Q180.20709 343.09064 181.00397 343.09064Q181.80084 343.09064 182.30084 343.27814Q182.80084 343.46564 183.03522 343.7469Q183.26959 344.02814 183.36334 344.46564Q183.41022 344.73126 183.41022 345.4344L183.41022 346.84064Q183.41022 348.3094 183.47272 348.7Q183.55084 349.09064 183.75397 349.45L182.64459 349.45Q182.48834 349.1219 182.44147 348.6844ZM182.34772 346.325Q181.76959 346.5594 180.62897 346.73126Q179.97272 346.825 179.70709 346.95Q179.44147 347.0594 179.28522 347.27814Q179.14459 347.4969 179.14459 347.77814Q179.14459 348.2 179.45709 348.48126Q179.78522 348.7625 180.39459 348.7625Q181.00397 348.7625 181.47272 348.4969Q181.95709 348.23126 182.17584 347.7625Q182.34772 347.40314 182.34772 346.71564L182.34772 346.325ZM185.37897 351.84064L185.37897 343.23126L186.33209 343.23126L186.33209 344.02814Q186.67584 343.5594 187.09772 343.325Q187.53522 343.09064 188.14459 343.09064Q188.94147 343.09064 189.55084 343.4969Q190.16022 343.90314 190.45709 344.65314Q190.76959 345.40314 190.76959 346.29376Q190.76959 347.2469 190.42584 348.0125Q190.09772 348.77814 189.44147 349.1844Q188.78522 349.59064 188.06647 349.59064Q187.53522 349.59064 187.11334 349.3719Q186.69147 349.1375 186.42584 348.8094L186.42584 351.84064L185.37897 351.84064ZM186.33209 346.3719Q186.33209 347.575 186.81647 348.15314Q187.30084 348.71564 187.98834 348.71564Q188.69147 348.71564 189.19147 348.1219Q189.69147 347.52814 189.69147 346.27814Q189.69147 345.09064 189.20709 344.5125Q188.72272 343.91876 188.03522 343.91876Q187.36334 343.91876 186.84772 344.54376Q186.33209 345.16876 186.33209 346.3719ZM192.37897 342.075L192.37897 340.85626L193.44147 340.85626L193.44147 342.075L192.37897 342.075ZM192.37897 349.45L192.37897 343.23126L193.44147 343.23126L193.44147 349.45L192.37897 349.45Z" fill-rule="nonzero"/><path fill="#000000" d="M317.59375 349.45L319.85938 346.21564L317.76562 343.23126L319.07812 343.23126L320.03125 344.6844Q320.29688 345.10626 320.46875 345.3875Q320.71875 344.9969 320.9375 344.7L321.98438 343.23126L323.25 343.23126L321.09375 346.15314L323.40625 349.45L322.125 349.45L320.84375 347.5125L320.5 346.9969L318.85938 349.45L317.59375 349.45ZM323.29688 349.45L323.29688 340.85626L324.35938 340.85626L324.35938 345.7625L326.84375 343.23126L328.21875 343.23126L325.82812 345.52814L328.45312 349.45L327.15625 349.45L325.09375 346.2625L324.35938 346.98126L324.35938 349.45L323.29688 349.45ZM333.35938 347.16876L334.39062 347.3094Q334.21875 348.3719 333.51562 348.98126Q332.8125 349.59064 331.79688 349.59064Q330.51562 349.59064 329.73438 348.7625Q328.96875 347.91876 328.96875 346.35626Q328.96875 345.35626 329.29688 344.60626Q329.64062 343.84064 330.3125 343.46564Q331.0 343.09064 331.8125 343.09064Q332.8125 343.09064 333.45312 343.60626Q334.10938 344.10626 334.29688 345.0594L333.26562 345.21564Q333.125 344.59064 332.75 344.27814Q332.375 343.95 331.84375 343.95Q331.04688 343.95 330.54688 344.52814Q330.04688 345.09064 330.04688 346.325Q330.04688 347.59064 330.53125 348.15314Q331.01562 348.71564 331.78125 348.71564Q332.40625 348.71564 332.8125 348.34064Q333.23438 347.96564 333.35938 347.16876ZM339.32812 349.45L339.32812 348.66876Q338.73438 349.59064 337.59375 349.59064Q336.84375 349.59064 336.21875 349.1844Q335.59375 348.7625 335.25 348.02814Q334.90625 347.29376 334.90625 346.34064Q334.90625 345.41876 335.21875 344.65314Q335.53125 343.8875 336.15625 343.4969Q336.78125 343.09064 337.54688 343.09064Q338.10938 343.09064 338.54688 343.325Q338.98438 343.5594 339.26562 343.9344L339.26562 340.85626L340.3125 340.85626L340.3125 349.45L339.32812 349.45ZM336.0 346.34064Q336.0 347.54376 336.5 348.1375Q337.0 348.71564 337.6875 348.71564Q338.375 348.71564 338.85938 348.15314Q339.34375 347.59064 339.34375 346.4344Q339.34375 345.15314 338.84375 344.5594Q338.35938 343.96564 337.64062 343.96564Q336.9375 343.96564 336.46875 344.54376Q336.0 345.10626 336.0 346.34064Z" fill-rule="nonzero"/><path fill="#000000" d="M464.71478 349.45L464.71478 340.85626L465.77728 340.85626L465.77728 345.7625L468.26166 343.23126L469.63666 343.23126L467.24603 345.52814L469.87103 349.45L468.57416 349.45L466.51166 346.2625L465.77728 346.98126L465.77728 349.45L464.71478 349.45ZM474.77728 348.6844Q474.18353 349.1844 473.63666 349.3875Q473.1054 349.59064 472.4804 349.59064Q471.44916 349.59064 470.90228 349.09064Q470.3554 348.59064 470.3554 347.8094Q470.3554 347.35626 470.55853 346.98126Q470.76166 346.59064 471.1054 346.3719Q471.44916 346.1375 471.87103 346.02814Q472.1679 345.9344 472.80853 345.85626Q474.07416 345.71564 474.68353 345.4969Q474.68353 345.27814 474.68353 345.23126Q474.68353 344.575 474.38666 344.3094Q473.9804 343.96564 473.18353 343.96564Q472.44916 343.96564 472.08978 344.23126Q471.7304 344.48126 471.55853 345.1375L470.52728 344.9969Q470.6679 344.34064 470.99603 343.9344Q471.32416 343.52814 471.93353 343.3094Q472.5429 343.09064 473.33978 343.09064Q474.13666 343.09064 474.63666 343.27814Q475.13666 343.46564 475.37103 343.7469Q475.6054 344.02814 475.69916 344.46564Q475.74603 344.73126 475.74603 345.4344L475.74603 346.84064Q475.74603 348.3094 475.80853 348.7Q475.88666 349.09064 476.08978 349.45L474.9804 349.45Q474.82416 349.1219 474.77728 348.6844ZM474.68353 346.325Q474.1054 346.5594 472.96478 346.73126Q472.30853 346.825 472.0429 346.95Q471.77728 347.0594 471.62103 347.27814Q471.4804 347.4969 471.4804 347.77814Q471.4804 348.2 471.7929 348.48126Q472.12103 348.7625 472.7304 348.7625Q473.33978 348.7625 473.80853 348.4969Q474.2929 348.23126 474.51166 347.7625Q474.68353 347.40314 474.68353 346.71564L474.68353 346.325ZM477.6679 351.84064L477.5429 350.85626Q477.88666 350.95 478.15228 350.95Q478.49603 350.95 478.69916 350.825Q478.9179 350.71564 479.05853 350.5125Q479.15228 350.34064 479.38666 349.71564Q479.40228 349.6375 479.4804 349.46564L477.1054 343.23126L478.24603 343.23126L479.5429 346.825Q479.7929 347.5125 479.99603 348.27814Q480.18353 347.54376 480.43353 346.85626L481.76166 343.23126L482.80853 343.23126L480.44916 349.5594Q480.05853 350.575 479.8554 350.96564Q479.57416 351.4969 479.19916 351.73126Q478.83978 351.98126 478.33978 351.98126Q478.0429 351.98126 477.6679 351.84064ZM482.71478 349.45L482.71478 343.23126L483.65228 343.23126L483.65228 344.10626Q484.33978 343.09064 485.63666 343.09064Q486.19916 343.09064 486.6679 343.29376Q487.15228 343.4969 487.38666 343.825Q487.62103 344.15314 487.71478 344.59064Q487.76166 344.8875 487.76166 345.6219L487.76166 349.45L486.71478 349.45L486.71478 345.66876Q486.71478 345.0125 486.58978 344.7Q486.46478 344.3875 486.15228 344.2Q485.83978 343.9969 485.4179 343.9969Q484.74603 343.9969 484.24603 344.4344Q483.76166 344.85626 483.76166 346.04376L483.76166 349.45L482.71478 349.45ZM493.96478 347.45L495.05853 347.575Q494.80853 348.52814 494.1054 349.0594Q493.40228 349.59064 492.32416 349.59064Q490.96478 349.59064 490.15228 348.7469Q489.3554 347.90314 489.3554 346.3875Q489.3554 344.825 490.1679 343.96564Q490.9804 343.09064 492.26166 343.09064Q493.51166 343.09064 494.2929 343.9344Q495.08978 344.77814 495.08978 346.325Q495.08978 346.41876 495.08978 346.60626L490.44916 346.60626Q490.51166 347.6375 491.02728 348.1844Q491.5429 348.71564 492.32416 348.71564Q492.90228 348.71564 493.30853 348.41876Q493.7304 348.10626 493.96478 347.45ZM490.51166 345.7469L493.9804 345.7469Q493.9179 344.95 493.58978 344.5594Q493.07416 343.95 492.27728 343.95Q491.5429 343.95 491.0429 344.4344Q490.55853 344.91876 490.51166 345.7469Z" fill-rule="nonzero"/><path fill="#4285f4" d="M167.0 53.916668C167.0 53.364384 167.44771 52.916668 168.0 52.916668L178.0 52.916668C178.55229 52.916668 179.0 53.364384 179.0 53.916668L179.0 63.916668C179.0 64.46895 178.55229 64.916664 178.0 64.916664L168.0 64.916664C167.44771 64.916664 167.0 64.46895 167.0 63.916668Z" fill-rule="nonzero"/><path fill="#1a1a1a" d="M191.46875 62.916668L190.42188 62.916668L190.42188 56.197918Q190.03125 56.557293 189.40625 56.932293Q188.79688 57.291668 188.3125 57.463543L188.3125 56.447918Q189.1875 56.026043 189.84375 55.447918Q190.51562 54.854168 190.79688 54.291668L191.46875 54.291668L191.46875 62.916668ZM200.04688 61.901043L200.04688 62.916668L194.35938 62.916668Q194.35938 62.541668 194.48438 62.182293Q194.70312 61.604168 195.17188 61.041668Q195.65625 60.479168 196.5625 59.744793Q197.96875 58.588543 198.45312 57.916668Q198.95312 57.244793 198.95312 56.651043Q198.95312 56.026043 198.5 55.604168Q198.04688 55.166668 197.32812 55.166668Q196.5625 55.166668 196.10938 55.619793Q195.65625 56.072918 195.64062 56.885418L194.5625 56.776043Q194.67188 55.557293 195.39062 54.932293Q196.125 54.291668 197.35938 54.291668Q198.59375 54.291668 199.3125 54.979168Q200.03125 55.666668 200.03125 56.682293Q200.03125 57.197918 199.8125 57.697918Q199.60938 58.182293 199.10938 58.744793Q198.625 59.291668 197.5 60.244793Q196.54688 61.041668 196.26562 61.338543Q196.0 61.619793 195.82812 61.901043L200.04688 61.901043ZM203.125 58.260418Q202.46875 58.010418 202.14062 57.572918Q201.82812 57.119793 201.82812 56.510418Q201.82812 55.572918 202.5 54.932293Q203.1875 54.291668 204.29688 54.291668Q205.42188 54.291668 206.10938 54.947918Q206.79688 55.604168 206.79688 56.541668Q206.79688 57.135418 206.48438 57.572918Q206.17188 58.010418 205.53125 58.260418Q206.32812 58.510418 206.73438 59.088543Q207.14062 59.666668 207.14062 60.463543Q207.14062 61.557293 206.35938 62.307293Q205.59375 63.057293 204.3125 63.057293Q203.04688 63.057293 202.26562 62.307293Q201.48438 61.557293 201.48438 60.432293Q201.48438 59.588543 201.90625 59.026043Q202.34375 58.463543 203.125 58.260418ZM202.90625 56.463543Q202.90625 57.072918 203.29688 57.463543Q203.70312 57.854168 204.32812 57.854168Q204.9375 57.854168 205.32812 57.479168Q205.71875 57.088543 205.71875 56.526043Q205.71875 55.947918 205.3125 55.557293Q204.90625 55.151043 204.3125 55.151043Q203.70312 55.151043 203.29688 55.541668Q202.90625 55.932293 202.90625 56.463543ZM202.57812 60.432293Q202.57812 60.885418 202.78125 61.307293Q203.0 61.729168 203.42188 61.963543Q203.84375 62.197918 204.32812 62.197918Q205.07812 62.197918 205.5625 61.713543Q206.0625 61.229168 206.0625 60.479168Q206.0625 59.713543 205.5625 59.213543Q205.0625 58.713543 204.29688 58.713543Q203.54688 58.713543 203.0625 59.213543Q202.57812 59.697918 202.57812 60.432293ZM208.89062 62.916668L208.89062 54.322918L210.60938 54.322918L212.64062 60.401043Q212.92188 61.260418 213.04688 61.682293Q213.1875 61.213543 213.5 60.307293L215.5625 54.322918L217.09375 54.322918L217.09375 62.916668L216.0 62.916668L216.0 55.729168L213.5 62.916668L212.46875 62.916668L209.98438 55.604168L209.98438 62.916668L208.89062 62.916668ZM217.875 62.916668L217.875 54.322918L221.10938 54.322918Q222.09375 54.322918 222.6875 54.588543Q223.28125 54.854168 223.60938 55.401043Q223.95312 55.932293 223.95312 56.526043Q223.95312 57.072918 223.65625 57.557293Q223.35938 58.041668 222.75 58.338543Q223.53125 58.572918 223.9375 59.135418Q224.35938 59.682293 224.35938 60.432293Q224.35938 61.026043 224.10938 61.557293Q223.85938 62.072918 223.48438 62.354168Q223.10938 62.635418 222.53125 62.776043Q221.96875 62.916668 221.15625 62.916668L217.875 62.916668ZM219.01562 57.932293L220.875 57.932293Q221.625 57.932293 221.95312 57.838543Q222.39062 57.713543 222.60938 57.416668Q222.82812 57.104168 222.82812 56.651043Q222.82812 56.229168 222.625 55.901043Q222.42188 55.572918 222.03125 55.463543Q221.65625 55.338543 220.73438 55.338543L219.01562 55.338543L219.01562 57.932293ZM219.01562 61.901043L221.15625 61.901043Q221.70312 61.901043 221.92188 61.854168Q222.32812 61.791668 222.57812 61.635418Q222.84375 61.463543 223.01562 61.151043Q223.1875 60.838543 223.1875 60.432293Q223.1875 59.947918 222.9375 59.588543Q222.70312 59.229168 222.26562 59.088543Q221.82812 58.947918 221.0 58.947918L219.01562 58.947918L219.01562 61.901043Z" fill-rule="nonzero"/><path fill="#ea4335" d="M241.0 53.916668C241.0 53.364384 241.44771 52.916668 242.0 52.916668L252.0 52.916668C252.55229 52.916668 253.0 53.364384 253.0 53.916668L253.0 63.916668C253.0 64.46895 252.55229 64.916664 252.0 64.916664L242.0 64.916664C241.44771 64.916664 241.0 64.46895 241.0 63.916668Z" fill-rule="nonzero"/><path fill="#1a1a1a" d="M267.04688 61.901043L267.04688 62.916668L261.35938 62.916668Q261.35938 62.541668 261.48438 62.182293Q261.70312 61.604168 262.17188 61.041668Q262.65625 60.479168 263.5625 59.744793Q264.96875 58.588543 265.45312 57.916668Q265.95312 57.244793 265.95312 56.651043Q265.95312 56.026043 265.5 55.604168Q265.04688 55.166668 264.32812 55.166668Q263.5625 55.166668 263.10938 55.619793Q262.65625 56.072918 262.64062 56.885418L261.5625 56.776043Q261.67188 55.557293 262.39062 54.932293Q263.125 54.291668 264.35938 54.291668Q265.59375 54.291668 266.3125 54.979168Q267.03125 55.666668 267.03125 56.682293Q267.03125 57.197918 266.8125 57.697918Q266.60938 58.182293 266.10938 58.744793Q265.625 59.291668 264.5 60.244793Q263.54688 61.041668 263.26562 61.338543Q263.0 61.619793 262.82812 61.901043L267.04688 61.901043ZM268.5 60.666668L269.60938 60.572918Q269.73438 61.385418 270.17188 61.791668Q270.625 62.197918 271.26562 62.197918Q272.01562 62.197918 272.54688 61.619793Q273.07812 61.041668 273.07812 60.104168Q273.07812 59.197918 272.5625 58.682293Q272.0625 58.151043 271.23438 58.151043Q270.73438 58.151043 270.3125 58.385418Q269.90625 58.619793 269.67188 58.979168L268.6875 58.854168L269.51562 54.447918L273.79688 54.447918L273.79688 55.447918L270.35938 55.447918L269.90625 57.760418Q270.67188 57.213543 271.51562 57.213543Q272.64062 57.213543 273.40625 57.994793Q274.1875 58.776043 274.1875 60.010418Q274.1875 61.166668 273.51562 62.026043Q272.6875 63.057293 271.26562 63.057293Q270.09375 63.057293 269.34375 62.401043Q268.60938 61.744793 268.5 60.666668ZM280.96875 56.432293L279.92188 56.510418Q279.78125 55.885418 279.53125 55.604168Q279.09375 55.151043 278.46875 55.151043Q277.96875 55.151043 277.57812 55.432293Q277.09375 55.807293 276.79688 56.510418Q276.51562 57.197918 276.5 58.479168Q276.875 57.901043 277.42188 57.619793Q277.98438 57.338543 278.59375 57.338543Q279.64062 57.338543 280.375 58.119793Q281.125 58.901043 281.125 60.119793Q281.125 60.932293 280.76562 61.635418Q280.42188 62.322918 279.8125 62.697918Q279.20312 63.057293 278.4375 63.057293Q277.10938 63.057293 276.28125 62.088543Q275.45312 61.119793 275.45312 58.901043Q275.45312 56.401043 276.375 55.276043Q277.17188 54.291668 278.53125 54.291668Q279.54688 54.291668 280.1875 54.869793Q280.84375 55.432293 280.96875 56.432293ZM276.67188 60.135418Q276.67188 60.682293 276.89062 61.182293Q277.125 61.666668 277.53125 61.932293Q277.95312 62.197918 278.42188 62.197918Q279.07812 62.197918 279.5625 61.666668Q280.04688 61.119793 280.04688 60.197918Q280.04688 59.307293 279.5625 58.791668Q279.09375 58.276043 278.375 58.276043Q277.65625 58.276043 277.15625 58.791668Q276.67188 59.307293 276.67188 60.135418ZM282.89062 62.916668L282.89062 54.322918L284.60938 54.322918L286.64062 60.401043Q286.92188 61.260418 287.04688 61.682293Q287.1875 61.213543 287.5 60.307293L289.5625 54.322918L291.09375 54.322918L291.09375 62.916668L290.0 62.916668L290.0 55.729168L287.5 62.916668L286.46875 62.916668L283.98438 55.604168L283.98438 62.916668L282.89062 62.916668ZM291.875 62.916668L291.875 54.322918L295.10938 54.322918Q296.09375 54.322918 296.6875 54.588543Q297.28125 54.854168 297.60938 55.401043Q297.95312 55.932293 297.95312 56.526043Q297.95312 57.072918 297.65625 57.557293Q297.35938 58.041668 296.75 58.338543Q297.53125 58.572918 297.9375 59.135418Q298.35938 59.682293 298.35938 60.432293Q298.35938 61.026043 298.10938 61.557293Q297.85938 62.072918 297.48438 62.354168Q297.10938 62.635418 296.53125 62.776043Q295.96875 62.916668 295.15625 62.916668L291.875 62.916668ZM293.01562 57.932293L294.875 57.932293Q295.625 57.932293 295.95312 57.838543Q296.39062 57.713543 296.60938 57.416668Q296.82812 57.104168 296.82812 56.651043Q296.82812 56.229168 296.625 55.901043Q296.42188 55.572918 296.03125 55.463543Q295.65625 55.338543 294.73438 55.338543L293.01562 55.338543L293.01562 57.932293ZM293.01562 61.901043L295.15625 61.901043Q295.70312 61.901043 295.92188 61.854168Q296.32812 61.791668 296.57812 61.635418Q296.84375 61.463543 297.01562 61.151043Q297.1875 60.838543 297.1875 60.432293Q297.1875 59.947918 296.9375 59.588543Q296.70312 59.229168 296.26562 59.088543Q295.82812 58.947918 295.0 58.947918L293.01562 58.947918L293.01562 61.901043Z" fill-rule="nonzero"/><path fill="#fbbc04" d="M315.0 53.916668C315.0 53.364384 315.44772 52.916668 316.0 52.916668L326.0 52.916668C326.55228 52.916668 327.0 53.364384 327.0 53.916668L327.0 63.916668C327.0 64.46895 326.55228 64.916664 326.0 64.916664L316.0 64.916664C315.44772 64.916664 315.0 64.46895 315.0 63.916668Z" fill-rule="nonzero"/><path fill="#1a1a1a" d="M335.5 60.666668L336.60938 60.572918Q336.73438 61.385418 337.17188 61.791668Q337.625 62.197918 338.26562 62.197918Q339.01562 62.197918 339.54688 61.619793Q340.07812 61.041668 340.07812 60.104168Q340.07812 59.197918 339.5625 58.682293Q339.0625 58.151043 338.23438 58.151043Q337.73438 58.151043 337.3125 58.385418Q336.90625 58.619793 336.67188 58.979168L335.6875 58.854168L336.51562 54.447918L340.79688 54.447918L340.79688 55.447918L337.35938 55.447918L336.90625 57.760418Q337.67188 57.213543 338.51562 57.213543Q339.64062 57.213543 340.40625 57.994793Q341.1875 58.776043 341.1875 60.010418Q341.1875 61.166668 340.51562 62.026043Q339.6875 63.057293 338.26562 63.057293Q337.09375 63.057293 336.34375 62.401043Q335.60938 61.744793 335.5 60.666668ZM346.46875 62.916668L345.42188 62.916668L345.42188 56.197918Q345.03125 56.557293 344.40625 56.932293Q343.79688 57.291668 343.3125 57.463543L343.3125 56.447918Q344.1875 56.026043 344.84375 55.447918Q345.51562 54.854168 345.79688 54.291668L346.46875 54.291668L346.46875 62.916668ZM355.04688 61.901043L355.04688 62.916668L349.35938 62.916668Q349.35938 62.541668 349.48438 62.182293Q349.70312 61.604168 350.17188 61.041668Q350.65625 60.479168 351.5625 59.744793Q352.96875 58.588543 353.45312 57.916668Q353.95312 57.244793 353.95312 56.651043Q353.95312 56.026043 353.5 55.604168Q353.04688 55.166668 352.32812 55.166668Q351.5625 55.166668 351.10938 55.619793Q350.65625 56.072918 350.64062 56.885418L349.5625 56.776043Q349.67188 55.557293 350.39062 54.932293Q351.125 54.291668 352.35938 54.291668Q353.59375 54.291668 354.3125 54.979168Q355.03125 55.666668 355.03125 56.682293Q355.03125 57.197918 354.8125 57.697918Q354.60938 58.182293 354.10938 58.744793Q353.625 59.291668 352.5 60.244793Q351.54688 61.041668 351.26562 61.338543Q351.0 61.619793 350.82812 61.901043L355.04688 61.901043ZM356.89062 62.916668L356.89062 54.322918L358.60938 54.322918L360.64062 60.401043Q360.92188 61.260418 361.04688 61.682293Q361.1875 61.213543 361.5 60.307293L363.5625 54.322918L365.09375 54.322918L365.09375 62.916668L364.0 62.916668L364.0 55.729168L361.5 62.916668L360.46875 62.916668L357.98438 55.604168L357.98438 62.916668L356.89062 62.916668ZM365.875 62.916668L365.875 54.322918L369.10938 54.322918Q370.09375 54.322918 370.6875 54.588543Q371.28125 54.854168 371.60938 55.401043Q371.95312 55.932293 371.95312 56.526043Q371.95312 57.072918 371.65625 57.557293Q371.35938 58.041668 370.75 58.338543Q371.53125 58.572918 371.9375 59.135418Q372.35938 59.682293 372.35938 60.432293Q372.35938 61.026043 372.10938 61.557293Q371.85938 62.072918 371.48438 62.354168Q371.10938 62.635418 370.53125 62.776043Q369.96875 62.916668 369.15625 62.916668L365.875 62.916668ZM367.01562 57.932293L368.875 57.932293Q369.625 57.932293 369.95312 57.838543Q370.39062 57.713543 370.60938 57.416668Q370.82812 57.104168 370.82812 56.651043Q370.82812 56.229168 370.625 55.901043Q370.42188 55.572918 370.03125 55.463543Q369.65625 55.338543 368.73438 55.338543L367.01562 55.338543L367.01562 57.932293ZM367.01562 61.901043L369.15625 61.901043Q369.70312 61.901043 369.92188 61.854168Q370.32812 61.791668 370.57812 61.635418Q370.84375 61.463543 371.01562 61.151043Q371.1875 60.838543 371.1875 60.432293Q371.1875 59.947918 370.9375 59.588543Q370.70312 59.229168 370.26562 59.088543Q369.82812 58.947918 369.0 58.947918L367.01562 58.947918L367.01562 61.901043Z" fill-rule="nonzero"/><path fill="#34a853" d="M389.0 53.916668C389.0 53.364384 389.44772 52.916668 390.0 52.916668L400.0 52.916668C400.55228 52.916668 401.0 53.364384 401.0 53.916668L401.0 63.916668C401.0 64.46895 400.55228 64.916664 400.0 64.916664L390.0 64.916664C389.44772 64.916664 389.0 64.46895 389.0 63.916668Z" fill-rule="nonzero"/><path fill="#1a1a1a" d="M413.46875 62.916668L412.42188 62.916668L412.42188 56.197918Q412.03125 56.557293 411.40625 56.932293Q410.79688 57.291668 410.3125 57.463543L410.3125 56.447918Q411.1875 56.026043 411.84375 55.447918Q412.51562 54.854168 412.79688 54.291668L413.46875 54.291668L413.46875 62.916668ZM420.95312 59.541668L420.95312 58.541668L424.57812 58.526043L424.57812 61.713543Q423.75 62.385418 422.85938 62.729168Q421.96875 63.057293 421.03125 63.057293Q419.76562 63.057293 418.71875 62.526043Q417.6875 61.979168 417.15625 60.963543Q416.64062 59.932293 416.64062 58.666668Q416.64062 57.401043 417.15625 56.322918Q417.6875 55.229168 418.67188 54.713543Q419.65625 54.182293 420.9375 54.182293Q421.875 54.182293 422.625 54.479168Q423.375 54.776043 423.79688 55.322918Q424.23438 55.854168 424.45312 56.729168L423.4375 57.010418Q423.23438 56.354168 422.9375 55.979168Q422.65625 55.604168 422.125 55.385418Q421.59375 55.151043 420.95312 55.151043Q420.17188 55.151043 419.59375 55.385418Q419.03125 55.619793 418.67188 56.010418Q418.32812 56.401043 418.14062 56.869793Q417.8125 57.666668 417.8125 58.588543Q417.8125 59.744793 418.20312 60.526043Q418.60938 61.291668 419.35938 61.666668Q420.10938 62.041668 420.96875 62.041668Q421.70312 62.041668 422.40625 61.760418Q423.10938 61.463543 423.46875 61.151043L423.46875 59.541668L420.95312 59.541668ZM425.875 62.916668L425.875 54.322918L429.10938 54.322918Q430.09375 54.322918 430.6875 54.588543Q431.28125 54.854168 431.60938 55.401043Q431.95312 55.932293 431.95312 56.526043Q431.95312 57.072918 431.65625 57.557293Q431.35938 58.041668 430.75 58.338543Q431.53125 58.572918 431.9375 59.135418Q432.35938 59.682293 432.35938 60.432293Q432.35938 61.026043 432.10938 61.557293Q431.85938 62.072918 431.48438 62.354168Q431.10938 62.635418 430.53125 62.776043Q429.96875 62.916668 429.15625 62.916668L425.875 62.916668ZM427.01562 57.932293L428.875 57.932293Q429.625 57.932293 429.95312 57.838543Q430.39062 57.713543 430.60938 57.416668Q430.82812 57.104168 430.82812 56.651043Q430.82812 56.229168 430.625 55.901043Q430.42188 55.572918 430.03125 55.463543Q429.65625 55.338543 428.73438 55.338543L427.01562 55.338543L427.01562 57.932293ZM427.01562 61.901043L429.15625 61.901043Q429.70312 61.901043 429.92188 61.854168Q430.32812 61.791668 430.57812 61.635418Q430.84375 61.463543 431.01562 61.151043Q431.1875 60.838543 431.1875 60.432293Q431.1875 59.947918 430.9375 59.588543Q430.70312 59.229168 430.26562 59.088543Q429.82812 58.947918 429.0 58.947918L427.01562 58.947918L427.01562 61.901043Z" fill-rule="nonzero"/><path fill="#757575" d="M42.890625 35.55L42.890625 22.659374L47.328125 22.659374Q48.828125 22.659374 49.625 22.846874Q50.734375 23.096874 51.515625 23.76875Q52.53125 24.628124 53.03125 25.971874Q53.546875 27.315624 53.546875 29.034374Q53.546875 30.503124 53.203125 31.64375Q52.859375 32.76875 52.3125 33.51875Q51.78125 34.253124 51.140625 34.690624Q50.515625 35.1125 49.609375 35.33125Q48.703125 35.55 47.53125 35.55L42.890625 35.55ZM44.59375 34.034374L47.34375 34.034374Q48.625 34.034374 49.34375 33.8Q50.0625 33.55 50.5 33.128124Q51.109375 32.51875 51.4375 31.503124Q51.78125 30.471874 51.78125 29.003124Q51.78125 26.9875 51.109375 25.909374Q50.453125 24.815624 49.5 24.45625Q48.828125 24.190624 47.296875 24.190624L44.59375 24.190624L44.59375 34.034374ZM61.796875 35.55L61.796875 34.175Q60.71875 35.76875 58.84375 35.76875Q58.015625 35.76875 57.296875 35.45625Q56.578125 35.128124 56.234375 34.659374Q55.890625 34.175 55.75 33.471874Q55.65625 33.003124 55.65625 32.003124L55.65625 26.221874L57.234375 26.221874L57.234375 31.39375Q57.234375 32.628124 57.328125 33.065624Q57.484375 33.690624 57.96875 34.05Q58.453125 34.39375 59.15625 34.39375Q59.875 34.39375 60.5 34.034374Q61.125 33.675 61.375 33.05Q61.640625 32.409374 61.640625 31.221874L61.640625 26.221874L63.21875 26.221874L63.21875 35.55L61.796875 35.55ZM65.671875 35.55L65.671875 26.221874L67.09375 26.221874L67.09375 27.628124Q67.640625 26.64375 68.09375 26.33125Q68.5625 26.003124 69.109375 26.003124Q69.921875 26.003124 70.734375 26.51875L70.203125 27.9875Q69.609375 27.64375 69.03125 27.64375Q68.515625 27.64375 68.09375 27.95625Q67.6875 28.26875 67.515625 28.815624Q67.25 29.659374 67.25 30.659374L67.25 35.55L65.671875 35.55ZM77.78125 34.39375Q76.90625 35.14375 76.078125 35.45625Q75.265625 35.76875 74.34375 35.76875Q72.796875 35.76875 71.96875 35.01875Q71.15625 34.253124 71.15625 33.08125Q71.15625 32.409374 71.46875 31.846874Q71.78125 31.26875 72.28125 30.925Q72.78125 30.58125 73.421875 30.409374Q73.890625 30.284374 74.828125 30.175Q76.734375 29.940624 77.640625 29.628124Q77.65625 29.3 77.65625 29.20625Q77.65625 28.253124 77.203125 27.846874Q76.59375 27.315624 75.40625 27.315624Q74.28125 27.315624 73.75 27.70625Q73.21875 28.096874 72.96875 29.096874L71.421875 28.878124Q71.640625 27.878124 72.109375 27.26875Q72.59375 26.659374 73.5 26.33125Q74.421875 26.003124 75.640625 26.003124Q76.828125 26.003124 77.578125 26.284374Q78.328125 26.565624 78.671875 27.003124Q79.03125 27.425 79.171875 28.065624Q79.25 28.471874 79.25 29.534374L79.25 31.64375Q79.25 33.846874 79.34375 34.440624Q79.453125 35.01875 79.75 35.55L78.09375 35.55Q77.84375 35.05 77.78125 34.39375ZM77.640625 30.8625Q76.78125 31.221874 75.0625 31.45625Q74.09375 31.596874 73.6875 31.784374Q73.28125 31.95625 73.0625 32.3Q72.84375 32.628124 72.84375 33.05Q72.84375 33.675 73.3125 34.096874Q73.796875 34.51875 74.71875 34.51875Q75.640625 34.51875 76.34375 34.128124Q77.0625 33.721874 77.390625 33.034374Q77.640625 32.4875 77.640625 31.440624L77.640625 30.8625ZM85.140625 34.128124L85.375 35.534374Q84.703125 35.675 84.171875 35.675Q83.3125 35.675 82.828125 35.409374Q82.359375 35.128124 82.171875 34.690624Q81.984375 34.2375 81.984375 32.815624L81.984375 27.440624L80.8125 27.440624L80.8125 26.221874L81.984375 26.221874L81.984375 23.909374L83.546875 22.95625L83.546875 26.221874L85.140625 26.221874L85.140625 27.440624L83.546875 27.440624L83.546875 32.909374Q83.546875 33.58125 83.625 33.784374Q83.71875 33.971874 83.90625 34.08125Q84.09375 34.190624 84.453125 34.190624Q84.703125 34.190624 85.140625 34.128124ZM86.703125 24.4875L86.703125 22.659374L88.28125 22.659374L88.28125 24.4875L86.703125 24.4875ZM86.703125 35.55L86.703125 26.221874L88.28125 26.221874L88.28125 35.55L86.703125 35.55ZM90.09375 30.878124Q90.09375 28.284374 91.546875 27.034374Q92.75 26.003124 94.46875 26.003124Q96.40625 26.003124 97.625 27.26875Q98.84375 28.534374 98.84375 30.753124Q98.84375 32.55 98.296875 33.58125Q97.765625 34.6125 96.734375 35.190624Q95.703125 35.76875 94.46875 35.76875Q92.515625 35.76875 91.296875 34.51875Q90.09375 33.253124 90.09375 30.878124ZM91.71875 30.878124Q91.71875 32.675 92.5 33.565624Q93.28125 34.45625 94.46875 34.45625Q95.65625 34.45625 96.4375 33.565624Q97.21875 32.659374 97.21875 30.83125Q97.21875 29.096874 96.421875 28.20625Q95.640625 27.315624 94.46875 27.315624Q93.28125 27.315624 92.5 28.20625Q91.71875 29.096874 91.71875 30.878124ZM100.6875 35.55L100.6875 26.221874L102.109375 26.221874L102.109375 27.55Q103.140625 26.003124 105.078125 26.003124Q105.921875 26.003124 106.625 26.315624Q107.34375 26.6125 107.6875 27.1125Q108.046875 27.596874 108.1875 28.26875Q108.265625 28.70625 108.265625 29.815624L108.265625 35.55L106.6875 35.55L106.6875 29.878124Q106.6875 28.909374 106.5 28.425Q106.328125 27.940624 105.84375 27.659374Q105.375 27.378124 104.75 27.378124Q103.734375 27.378124 103.0 28.01875Q102.265625 28.659374 102.265625 30.45625L102.265625 35.55L100.6875 35.55ZM110.046875 32.76875L111.625 32.51875Q111.75 33.45625 112.34375 33.95625Q112.953125 34.45625 114.03125 34.45625Q115.125 34.45625 115.65625 34.01875Q116.1875 33.565624 116.1875 32.971874Q116.1875 32.440624 115.71875 32.128124Q115.390625 31.925 114.09375 31.596874Q112.359375 31.159374 111.6875 30.846874Q111.015625 30.51875 110.65625 29.95625Q110.3125 29.378124 110.3125 28.690624Q110.3125 28.065624 110.59375 27.534374Q110.890625 27.003124 111.375 26.659374Q111.75 26.378124 112.390625 26.190624Q113.03125 26.003124 113.75 26.003124Q114.859375 26.003124 115.6875 26.33125Q116.515625 26.64375 116.90625 27.190624Q117.3125 27.721874 117.453125 28.628124L115.90625 28.83125Q115.796875 28.1125 115.296875 27.70625Q114.796875 27.3 113.875 27.3Q112.78125 27.3 112.3125 27.659374Q111.84375 28.01875 111.84375 28.503124Q111.84375 28.815624 112.046875 29.065624Q112.234375 29.315624 112.640625 29.4875Q112.890625 29.565624 114.046875 29.89375Q115.71875 30.33125 116.375 30.628124Q117.046875 30.909374 117.421875 31.45625Q117.8125 32.003124 117.8125 32.8Q117.8125 33.596874 117.34375 34.3Q116.890625 35.003124 116.015625 35.39375Q115.140625 35.76875 114.046875 35.76875Q112.21875 35.76875 111.265625 35.01875Q110.3125 34.253124 110.046875 32.76875ZM125.0625 35.55L125.0625 27.440624L123.671875 27.440624L123.671875 26.221874L125.0625 26.221874L125.0625 25.221874Q125.0625 24.284374 125.234375 23.83125Q125.453125 23.20625 126.03125 22.83125Q126.609375 22.440624 127.65625 22.440624Q128.3125 22.440624 129.125 22.596874L128.89062 23.9875Q128.39062 23.89375 127.953125 23.89375Q127.234375 23.89375 126.9375 24.20625Q126.640625 24.503124 126.640625 25.346874L126.640625 26.221874L128.45312 26.221874L128.45312 27.440624L126.640625 27.440624L126.640625 35.55L125.0625 35.55ZM129.09375 30.878124Q129.09375 28.284374 130.54688 27.034374Q131.75 26.003124 133.46875 26.003124Q135.40625 26.003124 136.625 27.26875Q137.84375 28.534374 137.84375 30.753124Q137.84375 32.55 137.29688 33.58125Q136.76562 34.6125 135.73438 35.190624Q134.70312 35.76875 133.46875 35.76875Q131.51562 35.76875 130.29688 34.51875Q129.09375 33.253124 129.09375 30.878124ZM130.71875 30.878124Q130.71875 32.675 131.5 33.565624Q132.28125 34.45625 133.46875 34.45625Q134.65625 34.45625 135.4375 33.565624Q136.21875 32.659374 136.21875 30.83125Q136.21875 29.096874 135.42188 28.20625Q134.64062 27.315624 133.46875 27.315624Q132.28125 27.315624 131.5 28.20625Q130.71875 29.096874 130.71875 30.878124ZM139.67188 35.55L139.67188 26.221874L141.09375 26.221874L141.09375 27.628124Q141.64062 26.64375 142.09375 26.33125Q142.5625 26.003124 143.10938 26.003124Q143.92188 26.003124 144.73438 26.51875L144.20312 27.9875Q143.60938 27.64375 143.03125 27.64375Q142.51562 27.64375 142.09375 27.95625Q141.6875 28.26875 141.51562 28.815624Q141.25 29.659374 141.25 30.659374L141.25 35.55L139.67188 35.55ZM156.78125 32.128124L158.32812 32.33125Q158.07812 33.940624 157.03125 34.8625Q155.98438 35.76875 154.45312 35.76875Q152.53125 35.76875 151.35938 34.51875Q150.20312 33.253124 150.20312 30.925Q150.20312 29.409374 150.70312 28.284374Q151.20312 27.14375 152.21875 26.58125Q153.25 26.003124 154.45312 26.003124Q155.98438 26.003124 156.9375 26.784374Q157.90625 27.55 158.1875 28.95625L156.64062 29.190624Q156.42188 28.253124 155.85938 27.784374Q155.3125 27.3 154.51562 27.3Q153.32812 27.3 152.57812 28.159374Q151.82812 29.01875 151.82812 30.878124Q151.82812 32.753124 152.54688 33.6125Q153.26562 34.45625 154.4375 34.45625Q155.35938 34.45625 155.98438 33.89375Q156.60938 33.315624 156.78125 32.128124ZM165.78125 34.39375Q164.90625 35.14375 164.07812 35.45625Q163.26562 35.76875 162.34375 35.76875Q160.79688 35.76875 159.96875 35.01875Q159.15625 34.253124 159.15625 33.08125Q159.15625 32.409374 159.46875 31.846874Q159.78125 31.26875 160.28125 30.925Q160.78125 30.58125 161.42188 30.409374Q161.89062 30.284374 162.82812 30.175Q164.73438 29.940624 165.64062 29.628124Q165.65625 29.3 165.65625 29.20625Q165.65625 28.253124 165.20312 27.846874Q164.59375 27.315624 163.40625 27.315624Q162.28125 27.315624 161.75 27.70625Q161.21875 28.096874 160.96875 29.096874L159.42188 28.878124Q159.64062 27.878124 160.10938 27.26875Q160.59375 26.659374 161.5 26.33125Q162.42188 26.003124 163.64062 26.003124Q164.82812 26.003124 165.57812 26.284374Q166.32812 26.565624 166.67188 27.003124Q167.03125 27.425 167.17188 28.065624Q167.25 28.471874 167.25 29.534374L167.25 31.64375Q167.25 33.846874 167.34375 34.440624Q167.45312 35.01875 167.75 35.55L166.09375 35.55Q165.84375 35.05 165.78125 34.39375ZM165.64062 30.8625Q164.78125 31.221874 163.0625 31.45625Q162.09375 31.596874 161.6875 31.784374Q161.28125 31.95625 161.0625 32.3Q160.84375 32.628124 160.84375 33.05Q160.84375 33.675 161.3125 34.096874Q161.79688 34.51875 162.71875 34.51875Q163.64062 34.51875 164.34375 34.128124Q165.0625 33.721874 165.39062 33.034374Q165.64062 32.4875 165.64062 31.440624L165.64062 30.8625ZM169.65625 35.55L169.65625 22.659374L171.23438 22.659374L171.23438 35.55L169.65625 35.55ZM173.65625 35.55L173.65625 22.659374L175.23438 22.659374L175.23438 35.55L173.65625 35.55ZM177.04688 32.76875L178.625 32.51875Q178.75 33.45625 179.34375 33.95625Q179.95312 34.45625 181.03125 34.45625Q182.125 34.45625 182.65625 34.01875Q183.1875 33.565624 183.1875 32.971874Q183.1875 32.440624 182.71875 32.128124Q182.39062 31.925 181.09375 31.596874Q179.35938 31.159374 178.6875 30.846874Q178.01562 30.51875 177.65625 29.95625Q177.3125 29.378124 177.3125 28.690624Q177.3125 28.065624 177.59375 27.534374Q177.89062 27.003124 178.375 26.659374Q178.75 26.378124 179.39062 26.190624Q180.03125 26.003124 180.75 26.003124Q181.85938 26.003124 182.6875 26.33125Q183.51562 26.64375 183.90625 27.190624Q184.3125 27.721874 184.45312 28.628124L182.90625 28.83125Q182.79688 28.1125 182.29688 27.70625Q181.79688 27.3 180.875 27.3Q179.78125 27.3 179.3125 27.659374Q178.84375 28.01875 178.84375 28.503124Q178.84375 28.815624 179.04688 29.065624Q179.23438 29.315624 179.64062 29.4875Q179.89062 29.565624 181.04688 29.89375Q182.71875 30.33125 183.375 30.628124Q184.04688 30.909374 184.42188 31.45625Q184.8125 32.003124 184.8125 32.8Q184.8125 33.596874 184.34375 34.3Q183.89062 35.003124 183.01562 35.39375Q182.14062 35.76875 181.04688 35.76875Q179.21875 35.76875 178.26562 35.01875Q177.3125 34.253124 177.04688 32.76875ZM195.14062 34.128124L195.375 35.534374Q194.70312 35.675 194.17188 35.675Q193.3125 35.675 192.82812 35.409374Q192.35938 35.128124 192.17188 34.690624Q191.98438 34.2375 191.98438 32.815624L191.98438 27.440624L190.8125 27.440624L190.8125 26.221874L191.98438 26.221874L191.98438 23.909374L193.54688 22.95625L193.54688 26.221874L195.14062 26.221874L195.14062 27.440624L193.54688 27.440624L193.54688 32.909374Q193.54688 33.58125 193.625 33.784374Q193.71875 33.971874 193.90625 34.08125Q194.09375 34.190624 194.45312 34.190624Q194.70312 34.190624 195.14062 34.128124ZM196.09375 30.878124Q196.09375 28.284374 197.54688 27.034374Q198.75 26.003124 200.46875 26.003124Q202.40625 26.003124 203.625 27.26875Q204.84375 28.534374 204.84375 30.753124Q204.84375 32.55 204.29688 33.58125Q203.76562 34.6125 202.73438 35.190624Q201.70312 35.76875 200.46875 35.76875Q198.51562 35.76875 197.29688 34.51875Q196.09375 33.253124 196.09375 30.878124ZM197.71875 30.878124Q197.71875 32.675 198.5 33.565624Q199.28125 34.45625 200.46875 34.45625Q201.65625 34.45625 202.4375 33.565624Q203.21875 32.659374 203.21875 30.83125Q203.21875 29.096874 202.42188 28.20625Q201.64062 27.315624 200.46875 27.315624Q199.28125 27.315624 198.5 28.20625Q197.71875 29.096874 197.71875 30.878124ZM211.92188 35.55L211.92188 22.659374L217.625 22.659374Q219.34375 22.659374 220.23438 23.01875Q221.14062 23.3625 221.67188 24.2375Q222.21875 25.1125 222.21875 26.175Q222.21875 27.55 221.32812 28.4875Q220.4375 29.425 218.59375 29.690624Q219.26562 30.01875 219.60938 30.33125Q220.35938 31.01875 221.03125 32.05L223.26562 35.55L221.125 35.55L219.42188 32.8625Q218.67188 31.70625 218.1875 31.096874Q217.70312 30.471874 217.3125 30.2375Q216.9375 29.9875 216.54688 29.89375Q216.25 29.83125 215.59375 29.83125L213.625 29.83125L213.625 35.55L211.92188 35.55ZM213.625 28.346874L217.28125 28.346874Q218.45312 28.346874 219.10938 28.1125Q219.76562 27.8625 220.10938 27.33125Q220.45312 26.8 220.45312 26.175Q220.45312 25.26875 219.78125 24.675Q219.125 24.08125 217.70312 24.08125L213.625 24.08125L213.625 28.346874ZM224.92188 35.55L224.92188 22.659374L234.23438 22.659374L234.23438 24.190624L226.625 24.190624L226.625 28.128124L233.75 28.128124L233.75 29.64375L226.625 29.64375L226.625 34.034374L234.54688 34.034374L234.54688 35.55L224.92188 35.55ZM236.3125 31.409374L237.92188 31.26875Q238.03125 32.2375 238.4375 32.8625Q238.85938 33.471874 239.73438 33.8625Q240.625 34.2375 241.71875 34.2375Q242.70312 34.2375 243.4375 33.95625Q244.1875 33.659374 244.54688 33.159374Q244.92188 32.64375 244.92188 32.05Q244.92188 31.440624 244.5625 30.9875Q244.21875 30.534374 243.40625 30.2375Q242.89062 30.034374 241.10938 29.6125Q239.34375 29.175 238.625 28.8Q237.70312 28.315624 237.25 27.596874Q236.79688 26.878124 236.79688 26.003124Q236.79688 25.01875 237.34375 24.175Q237.90625 23.33125 238.96875 22.89375Q240.03125 22.440624 241.34375 22.440624Q242.76562 22.440624 243.85938 22.909374Q244.95312 23.3625 245.54688 24.26875Q246.14062 25.159374 246.17188 26.3L244.54688 26.425Q244.40625 25.190624 243.64062 24.565624Q242.89062 23.940624 241.40625 23.940624Q239.85938 23.940624 239.14062 24.51875Q238.4375 25.08125 238.4375 25.878124Q238.4375 26.58125 238.95312 27.01875Q239.4375 27.471874 241.51562 27.940624Q243.59375 28.409374 244.375 28.76875Q245.5 29.284374 246.03125 30.08125Q246.5625 30.878124 246.5625 31.909374Q246.5625 32.940624 245.96875 33.846874Q245.39062 34.753124 244.28125 35.26875Q243.1875 35.76875 241.79688 35.76875Q240.04688 35.76875 238.85938 35.26875Q237.6875 34.753124 237.01562 33.7375Q236.34375 32.70625 236.3125 31.409374ZM252.17188 35.55L252.17188 24.190624L247.92188 24.190624L247.92188 22.659374L258.14062 22.659374L258.14062 24.190624L253.875 24.190624L253.875 35.55L252.17188 35.55ZM271.78125 34.39375Q270.90625 35.14375 270.07812 35.45625Q269.26562 35.76875 268.34375 35.76875Q266.79688 35.76875 265.96875 35.01875Q265.15625 34.253124 265.15625 33.08125Q265.15625 32.409374 265.46875 31.846874Q265.78125 31.26875 266.28125 30.925Q266.78125 30.58125 267.42188 30.409374Q267.89062 30.284374 268.82812 30.175Q270.73438 29.940624 271.64062 29.628124Q271.65625 29.3 271.65625 29.20625Q271.65625 28.253124 271.20312 27.846874Q270.59375 27.315624 269.40625 27.315624Q268.28125 27.315624 267.75 27.70625Q267.21875 28.096874 266.96875 29.096874L265.42188 28.878124Q265.64062 27.878124 266.10938 27.26875Q266.59375 26.659374 267.5 26.33125Q268.42188 26.003124 269.64062 26.003124Q270.82812 26.003124 271.57812 26.284374Q272.32812 26.565624 272.67188 27.003124Q273.03125 27.425 273.17188 28.065624Q273.25 28.471874 273.25 29.534374L273.25 31.64375Q273.25 33.846874 273.34375 34.440624Q273.45312 35.01875 273.75 35.55L272.09375 35.55Q271.84375 35.05 271.78125 34.39375ZM271.64062 30.8625Q270.78125 31.221874 269.0625 31.45625Q268.09375 31.596874 267.6875 31.784374Q267.28125 31.95625 267.0625 32.3Q266.84375 32.628124 266.84375 33.05Q266.84375 33.675 267.3125 34.096874Q267.79688 34.51875 268.71875 34.51875Q269.64062 34.51875 270.34375 34.128124Q271.0625 33.721874 271.39062 33.034374Q271.64062 32.4875 271.64062 31.440624L271.64062 30.8625ZM275.6875 39.128124L275.6875 26.221874L277.125 26.221874L277.125 27.425Q277.64062 26.721874 278.28125 26.3625Q278.92188 26.003124 279.82812 26.003124Q281.03125 26.003124 281.9375 26.628124Q282.85938 27.2375 283.32812 28.3625Q283.79688 29.471874 283.79688 30.815624Q283.79688 32.2375 283.28125 33.39375Q282.76562 34.534374 281.78125 35.159374Q280.79688 35.76875 279.71875 35.76875Q278.9375 35.76875 278.29688 35.440624Q277.67188 35.096874 277.26562 34.58125L277.26562 39.128124L275.6875 39.128124ZM277.125 30.940624Q277.125 32.7375 277.84375 33.596874Q278.57812 34.45625 279.60938 34.45625Q280.67188 34.45625 281.42188 33.565624Q282.17188 32.675 282.17188 30.8Q282.17188 29.01875 281.4375 28.128124Q280.70312 27.2375 279.6875 27.2375Q278.67188 27.2375 277.89062 28.190624Q277.125 29.128124 277.125 30.940624ZM285.70312 24.4875L285.70312 22.659374L287.28125 22.659374L287.28125 24.4875L285.70312 24.4875ZM285.70312 35.55L285.70312 26.221874L287.28125 26.221874L287.28125 35.55L285.70312 35.55ZM289.04688 32.76875L290.625 32.51875Q290.75 33.45625 291.34375 33.95625Q291.95312 34.45625 293.03125 34.45625Q294.125 34.45625 294.65625 34.01875Q295.1875 33.565624 295.1875 32.971874Q295.1875 32.440624 294.71875 32.128124Q294.39062 31.925 293.09375 31.596874Q291.35938 31.159374 290.6875 30.846874Q290.01562 30.51875 289.65625 29.95625Q289.3125 29.378124 289.3125 28.690624Q289.3125 28.065624 289.59375 27.534374Q289.89062 27.003124 290.375 26.659374Q290.75 26.378124 291.39062 26.190624Q292.03125 26.003124 292.75 26.003124Q293.85938 26.003124 294.6875 26.33125Q295.51562 26.64375 295.90625 27.190624Q296.3125 27.721874 296.45312 28.628124L294.90625 28.83125Q294.79688 28.1125 294.29688 27.70625Q293.79688 27.3 292.875 27.3Q291.78125 27.3 291.3125 27.659374Q290.84375 28.01875 290.84375 28.503124Q290.84375 28.815624 291.04688 29.065624Q291.23438 29.315624 291.64062 29.4875Q291.89062 29.565624 293.04688 29.89375Q294.71875 30.33125 295.375 30.628124Q296.04688 30.909374 296.42188 31.45625Q296.8125 32.003124 296.8125 32.8Q296.8125 33.596874 296.34375 34.3Q295.89062 35.003124 295.01562 35.39375Q294.14062 35.76875 293.04688 35.76875Q291.21875 35.76875 290.26562 35.01875Q289.3125 34.253124 289.04688 32.76875ZM305.40625 35.55L302.54688 26.221874L304.1875 26.221874L305.67188 31.596874L306.23438 33.6125Q306.26562 33.45625 306.70312 31.675L308.20312 26.221874L309.82812 26.221874L311.21875 31.628124L311.6875 33.409374L312.21875 31.6125L313.82812 26.221874L315.35938 26.221874L312.4375 35.55L310.79688 35.55L309.3125 29.95625L308.95312 28.3625L307.0625 35.55L305.40625 35.55ZM316.70312 24.4875L316.70312 22.659374L318.28125 22.659374L318.28125 24.4875L316.70312 24.4875ZM316.70312 35.55L316.70312 26.221874L318.28125 26.221874L318.28125 35.55L316.70312 35.55ZM324.14062 34.128124L324.375 35.534374Q323.70312 35.675 323.17188 35.675Q322.3125 35.675 321.82812 35.409374Q321.35938 35.128124 321.17188 34.690624Q320.98438 34.2375 320.98438 32.815624L320.98438 27.440624L319.8125 27.440624L319.8125 26.221874L320.98438 26.221874L320.98438 23.909374L322.54688 22.95625L322.54688 26.221874L324.14062 26.221874L324.14062 27.440624L322.54688 27.440624L322.54688 32.909374Q322.54688 33.58125 322.625 33.784374Q322.71875 33.971874 322.90625 34.08125Q323.09375 34.190624 323.45312 34.190624Q323.70312 34.190624 324.14062 34.128124ZM325.6875 35.55L325.6875 22.659374L327.26562 22.659374L327.26562 27.284374Q328.375 26.003124 330.0625 26.003124Q331.09375 26.003124 331.85938 26.409374Q332.625 26.815624 332.95312 27.55Q333.29688 28.26875 333.29688 29.628124L333.29688 35.55L331.70312 35.55L331.70312 29.628124Q331.70312 28.440624 331.1875 27.909374Q330.67188 27.3625 329.73438 27.3625Q329.03125 27.3625 328.40625 27.7375Q327.79688 28.096874 327.53125 28.721874Q327.26562 29.346874 327.26562 30.440624L327.26562 35.55L325.6875 35.55ZM343.28125 35.55L339.73438 26.221874L341.40625 26.221874L343.40625 31.8Q343.73438 32.70625 344.0 33.690624Q344.21875 32.940624 344.59375 31.909374L346.65625 26.221874L348.29688 26.221874L344.75 35.55L343.28125 35.55ZM355.78125 34.39375Q354.90625 35.14375 354.07812 35.45625Q353.26562 35.76875 352.34375 35.76875Q350.79688 35.76875 349.96875 35.01875Q349.15625 34.253124 349.15625 33.08125Q349.15625 32.409374 349.46875 31.846874Q349.78125 31.26875 350.28125 30.925Q350.78125 30.58125 351.42188 30.409374Q351.89062 30.284374 352.82812 30.175Q354.73438 29.940624 355.64062 29.628124Q355.65625 29.3 355.65625 29.20625Q355.65625 28.253124 355.20312 27.846874Q354.59375 27.315624 353.40625 27.315624Q352.28125 27.315624 351.75 27.70625Q351.21875 28.096874 350.96875 29.096874L349.42188 28.878124Q349.64062 27.878124 350.10938 27.26875Q350.59375 26.659374 351.5 26.33125Q352.42188 26.003124 353.64062 26.003124Q354.82812 26.003124 355.57812 26.284374Q356.32812 26.565624 356.67188 27.003124Q357.03125 27.425 357.17188 28.065624Q357.25 28.471874 357.25 29.534374L357.25 31.64375Q357.25 33.846874 357.34375 34.440624Q357.45312 35.01875 357.75 35.55L356.09375 35.55Q355.84375 35.05 355.78125 34.39375ZM355.64062 30.8625Q354.78125 31.221874 353.0625 31.45625Q352.09375 31.596874 351.6875 31.784374Q351.28125 31.95625 351.0625 32.3Q350.84375 32.628124 350.84375 33.05Q350.84375 33.675 351.3125 34.096874Q351.79688 34.51875 352.71875 34.51875Q353.64062 34.51875 354.34375 34.128124Q355.0625 33.721874 355.39062 33.034374Q355.64062 32.4875 355.64062 31.440624L355.64062 30.8625ZM359.67188 35.55L359.67188 26.221874L361.09375 26.221874L361.09375 27.628124Q361.64062 26.64375 362.09375 26.33125Q362.5625 26.003124 363.10938 26.003124Q363.92188 26.003124 364.73438 26.51875L364.20312 27.9875Q363.60938 27.64375 363.03125 27.64375Q362.51562 27.64375 362.09375 27.95625Q361.6875 28.26875 361.51562 28.815624Q361.25 29.659374 361.25 30.659374L361.25 35.55L359.67188 35.55ZM365.60938 39.14375L365.4375 37.659374Q365.95312 37.8 366.34375 37.8Q366.875 37.8 367.1875 37.628124Q367.5 37.45625 367.70312 37.128124Q367.85938 36.89375 368.1875 35.95625Q368.23438 35.815624 368.32812 35.565624L364.79688 26.221874L366.5 26.221874L368.4375 31.628124Q368.8125 32.64375 369.10938 33.784374Q369.39062 32.690624 369.76562 31.659374L371.76562 26.221874L373.34375 26.221874L369.79688 35.70625Q369.21875 37.253124 368.90625 37.83125Q368.48438 38.6125 367.9375 38.971874Q367.39062 39.33125 366.64062 39.33125Q366.17188 39.33125 365.60938 39.14375ZM374.70312 24.4875L374.70312 22.659374L376.28125 22.659374L376.28125 24.4875L374.70312 24.4875ZM374.70312 35.55L374.70312 26.221874L376.28125 26.221874L376.28125 35.55L374.70312 35.55ZM378.6875 35.55L378.6875 26.221874L380.10938 26.221874L380.10938 27.55Q381.14062 26.003124 383.07812 26.003124Q383.92188 26.003124 384.625 26.315624Q385.34375 26.6125 385.6875 27.1125Q386.04688 27.596874 386.1875 28.26875Q386.26562 28.70625 386.26562 29.815624L386.26562 35.55L384.6875 35.55L384.6875 29.878124Q384.6875 28.909374 384.5 28.425Q384.32812 27.940624 383.84375 27.659374Q383.375 27.378124 382.75 27.378124Q381.73438 27.378124 381.0 28.01875Q380.26562 28.659374 380.26562 30.45625L380.26562 35.55L378.6875 35.55ZM388.39062 36.33125L389.9375 36.55Q390.03125 37.26875 390.46875 37.596874Q391.0625 38.034374 392.07812 38.034374Q393.17188 38.034374 393.76562 37.58125Q394.375 37.14375 394.57812 36.3625Q394.70312 35.878124 394.70312 34.33125Q393.65625 35.55 392.10938 35.55Q390.1875 35.55 389.125 34.159374Q388.07812 32.76875 388.07812 30.83125Q388.07812 29.4875 388.5625 28.3625Q389.04688 27.2375 389.96875 26.628124Q390.89062 26.003124 392.125 26.003124Q393.78125 26.003124 394.84375 27.346874L394.84375 26.221874L396.3125 26.221874L396.3125 34.284374Q396.3125 36.471874 395.85938 37.378124Q395.42188 38.284374 394.45312 38.8Q393.5 39.33125 392.09375 39.33125Q390.42188 39.33125 389.39062 38.58125Q388.35938 37.83125 388.39062 36.33125ZM389.70312 30.721874Q389.70312 32.55 390.4375 33.39375Q391.17188 34.2375 392.26562 34.2375Q393.35938 34.2375 394.09375 33.409374Q394.82812 32.565624 394.82812 30.76875Q394.82812 29.05 394.0625 28.190624Q393.3125 27.315624 392.23438 27.315624Q391.1875 27.315624 390.4375 28.175Q389.70312 29.034374 389.70312 30.721874ZM409.78125 34.39375Q408.90625 35.14375 408.07812 35.45625Q407.26562 35.76875 406.34375 35.76875Q404.79688 35.76875 403.96875 35.01875Q403.15625 34.253124 403.15625 33.08125Q403.15625 32.409374 403.46875 31.846874Q403.78125 31.26875 404.28125 30.925Q404.78125 30.58125 405.42188 30.409374Q405.89062 30.284374 406.82812 30.175Q408.73438 29.940624 409.64062 29.628124Q409.65625 29.3 409.65625 29.20625Q409.65625 28.253124 409.20312 27.846874Q408.59375 27.315624 407.40625 27.315624Q406.28125 27.315624 405.75 27.70625Q405.21875 28.096874 404.96875 29.096874L403.42188 28.878124Q403.64062 27.878124 404.10938 27.26875Q404.59375 26.659374 405.5 26.33125Q406.42188 26.003124 407.64062 26.003124Q408.82812 26.003124 409.57812 26.284374Q410.32812 26.565624 410.67188 27.003124Q411.03125 27.425 411.17188 28.065624Q411.25 28.471874 411.25 29.534374L411.25 31.64375Q411.25 33.846874 411.34375 34.440624Q411.45312 35.01875 411.75 35.55L410.09375 35.55Q409.84375 35.05 409.78125 34.39375ZM409.64062 30.8625Q408.78125 31.221874 407.0625 31.45625Q406.09375 31.596874 405.6875 31.784374Q405.28125 31.95625 405.0625 32.3Q404.84375 32.628124 404.84375 33.05Q404.84375 33.675 405.3125 34.096874Q405.79688 34.51875 406.71875 34.51875Q407.64062 34.51875 408.34375 34.128124Q409.0625 33.721874 409.39062 33.034374Q409.64062 32.4875 409.64062 31.440624L409.64062 30.8625ZM413.6875 35.55L413.6875 26.221874L415.10938 26.221874L415.10938 27.51875Q415.54688 26.846874 416.26562 26.425Q417.0 26.003124 417.9375 26.003124Q418.96875 26.003124 419.625 26.440624Q420.29688 26.8625 420.5625 27.64375Q421.67188 26.003124 423.45312 26.003124Q424.84375 26.003124 425.57812 26.784374Q426.32812 27.55 426.32812 29.14375L426.32812 35.55L424.76562 35.55L424.76562 29.675Q424.76562 28.721874 424.60938 28.3Q424.45312 27.878124 424.04688 27.628124Q423.64062 27.378124 423.09375 27.378124Q422.10938 27.378124 421.45312 28.034374Q420.8125 28.690624 420.8125 30.128124L420.8125 35.55L419.23438 35.55L419.23438 29.4875Q419.23438 28.425 418.84375 27.909374Q418.45312 27.378124 417.57812 27.378124Q416.90625 27.378124 416.34375 27.7375Q415.78125 28.08125 415.51562 28.753124Q415.26562 29.425 415.26562 30.70625L415.26562 35.55L413.6875 35.55ZM427.09375 30.878124Q427.09375 28.284374 428.54688 27.034374Q429.75 26.003124 431.46875 26.003124Q433.40625 26.003124 434.625 27.26875Q435.84375 28.534374 435.84375 30.753124Q435.84375 32.55 435.29688 33.58125Q434.76562 34.6125 433.73438 35.190624Q432.70312 35.76875 431.46875 35.76875Q429.51562 35.76875 428.29688 34.51875Q427.09375 33.253124 427.09375 30.878124ZM428.71875 30.878124Q428.71875 32.675 429.5 33.565624Q430.28125 34.45625 431.46875 34.45625Q432.65625 34.45625 433.4375 33.565624Q434.21875 32.659374 434.21875 30.83125Q434.21875 29.096874 433.42188 28.20625Q432.64062 27.315624 431.46875 27.315624Q430.28125 27.315624 429.5 28.20625Q428.71875 29.096874 428.71875 30.878124ZM443.79688 35.55L443.79688 34.175Q442.71875 35.76875 440.84375 35.76875Q440.01562 35.76875 439.29688 35.45625Q438.57812 35.128124 438.23438 34.659374Q437.89062 34.175 437.75 33.471874Q437.65625 33.003124 437.65625 32.003124L437.65625 26.221874L439.23438 26.221874L439.23438 31.39375Q439.23438 32.628124 439.32812 33.065624Q439.48438 33.690624 439.96875 34.05Q440.45312 34.39375 441.15625 34.39375Q441.875 34.39375 442.5 34.034374Q443.125 33.675 443.375 33.05Q443.64062 32.409374 443.64062 31.221874L443.64062 26.221874L445.21875 26.221874L445.21875 35.55L443.79688 35.55ZM447.6875 35.55L447.6875 26.221874L449.10938 26.221874L449.10938 27.55Q450.14062 26.003124 452.07812 26.003124Q452.92188 26.003124 453.625 26.315624Q454.34375 26.6125 454.6875 27.1125Q455.04688 27.596874 455.1875 28.26875Q455.26562 28.70625 455.26562 29.815624L455.26562 35.55L453.6875 35.55L453.6875 29.878124Q453.6875 28.909374 453.5 28.425Q453.32812 27.940624 452.84375 27.659374Q452.375 27.378124 451.75 27.378124Q450.73438 27.378124 450.0 28.01875Q449.26562 28.659374 449.26562 30.45625L449.26562 35.55L447.6875 35.55ZM461.14062 34.128124L461.375 35.534374Q460.70312 35.675 460.17188 35.675Q459.3125 35.675 458.82812 35.409374Q458.35938 35.128124 458.17188 34.690624Q457.98438 34.2375 457.98438 32.815624L457.98438 27.440624L456.8125 27.440624L456.8125 26.221874L457.98438 26.221874L457.98438 23.909374L459.54688 22.95625L459.54688 26.221874L461.14062 26.221874L461.14062 27.440624L459.54688 27.440624L459.54688 32.909374Q459.54688 33.58125 459.625 33.784374Q459.71875 33.971874 459.90625 34.08125Q460.09375 34.190624 460.45312 34.190624Q460.70312 34.190624 461.14062 34.128124ZM462.04688 32.76875L463.625 32.51875Q463.75 33.45625 464.34375 33.95625Q464.95312 34.45625 466.03125 34.45625Q467.125 34.45625 467.65625 34.01875Q468.1875 33.565624 468.1875 32.971874Q468.1875 32.440624 467.71875 32.128124Q467.39062 31.925 466.09375 31.596874Q464.35938 31.159374 463.6875 30.846874Q463.01562 30.51875 462.65625 29.95625Q462.3125 29.378124 462.3125 28.690624Q462.3125 28.065624 462.59375 27.534374Q462.89062 27.003124 463.375 26.659374Q463.75 26.378124 464.39062 26.190624Q465.03125 26.003124 465.75 26.003124Q466.85938 26.003124 467.6875 26.33125Q468.51562 26.64375 468.90625 27.190624Q469.3125 27.721874 469.45312 28.628124L467.90625 28.83125Q467.79688 28.1125 467.29688 27.70625Q466.79688 27.3 465.875 27.3Q464.78125 27.3 464.3125 27.659374Q463.84375 28.01875 463.84375 28.503124Q463.84375 28.815624 464.04688 29.065624Q464.23438 29.315624 464.64062 29.4875Q464.89062 29.565624 466.04688 29.89375Q467.71875 30.33125 468.375 30.628124Q469.04688 30.909374 469.42188 31.45625Q469.8125 32.003124 469.8125 32.8Q469.8125 33.596874 469.34375 34.3Q468.89062 35.003124 468.01562 35.39375Q467.14062 35.76875 466.04688 35.76875Q464.21875 35.76875 463.26562 35.01875Q462.3125 34.253124 462.04688 32.76875ZM476.09375 30.878124Q476.09375 28.284374 477.54688 27.034374Q478.75 26.003124 480.46875 26.003124Q482.40625 26.003124 483.625 27.26875Q484.84375 28.534374 484.84375 30.753124Q484.84375 32.55 484.29688 33.58125Q483.76562 34.6125 482.73438 35.190624Q481.70312 35.76875 480.46875 35.76875Q478.51562 35.76875 477.29688 34.51875Q476.09375 33.253124 476.09375 30.878124ZM477.71875 30.878124Q477.71875 32.675 478.5 33.565624Q479.28125 34.45625 480.46875 34.45625Q481.65625 34.45625 482.4375 33.565624Q483.21875 32.659374 483.21875 30.83125Q483.21875 29.096874 482.42188 28.20625Q481.64062 27.315624 480.46875 27.315624Q479.28125 27.315624 478.5 28.20625Q477.71875 29.096874 477.71875 30.878124ZM487.0625 35.55L487.0625 27.440624L485.67188 27.440624L485.67188 26.221874L487.0625 26.221874L487.0625 25.221874Q487.0625 24.284374 487.23438 23.83125Q487.45312 23.20625 488.03125 22.83125Q488.60938 22.440624 489.65625 22.440624Q490.3125 22.440624 491.125 22.596874L490.89062 23.9875Q490.39062 23.89375 489.95312 23.89375Q489.23438 23.89375 488.9375 24.20625Q488.64062 24.503124 488.64062 25.346874L488.64062 26.221874L490.45312 26.221874L490.45312 27.440624L488.64062 27.440624L488.64062 35.55L487.0625 35.55ZM496.6875 35.55L496.6875 26.221874L498.10938 26.221874L498.10938 27.51875Q498.54688 26.846874 499.26562 26.425Q500.0 26.003124 500.9375 26.003124Q501.96875 26.003124 502.625 26.440624Q503.29688 26.8625 503.5625 27.64375Q504.67188 26.003124 506.45312 26.003124Q507.84375 26.003124 508.57812 26.784374Q509.32812 27.55 509.32812 29.14375L509.32812 35.55L507.76562 35.55L507.76562 29.675Q507.76562 28.721874 507.60938 28.3Q507.45312 27.878124 507.04688 27.628124Q506.64062 27.378124 506.09375 27.378124Q505.10938 27.378124 504.45312 28.034374Q503.8125 28.690624 503.8125 30.128124L503.8125 35.55L502.23438 35.55L502.23438 29.4875Q502.23438 28.425 501.84375 27.909374Q501.45312 27.378124 500.57812 27.378124Q499.90625 27.378124 499.34375 27.7375Q498.78125 28.08125 498.51562 28.753124Q498.26562 29.425 498.26562 30.70625L498.26562 35.55L496.6875 35.55ZM517.0781 32.55L518.71875 32.753124Q518.3281 34.175 517.28125 34.971874Q516.2344 35.76875 514.6094 35.76875Q512.5625 35.76875 511.35938 34.503124Q510.15625 33.2375 510.15625 30.95625Q510.15625 28.6125 511.35938 27.315624Q512.5781 26.003124 514.5156 26.003124Q516.3906 26.003124 517.5781 27.284374Q518.7656 28.55 518.7656 30.8625Q518.7656 31.003124 518.75 31.284374L511.79688 31.284374Q511.875 32.83125 512.65625 33.64375Q513.4531 34.45625 514.6094 34.45625Q515.4844 34.45625 516.09375 34.003124Q516.71875 33.55 517.0781 32.55ZM511.875 29.9875L517.09375 29.9875Q516.9844 28.815624 516.5 28.221874Q515.7344 27.3 514.53125 27.3Q513.4531 27.3 512.7031 28.034374Q511.96875 28.76875 511.875 29.9875ZM520.6875 35.55L520.6875 26.221874L522.1094 26.221874L522.1094 27.51875Q522.5469 26.846874 523.2656 26.425Q524.0 26.003124 524.9375 26.003124Q525.96875 26.003124 526.625 26.440624Q527.2969 26.8625 527.5625 27.64375Q528.6719 26.003124 530.4531 26.003124Q531.84375 26.003124 532.5781 26.784374Q533.3281 27.55 533.3281 29.14375L533.3281 35.55L531.7656 35.55L531.7656 29.675Q531.7656 28.721874 531.6094 28.3Q531.4531 27.878124 531.0469 27.628124Q530.6406 27.378124 530.09375 27.378124Q529.1094 27.378124 528.4531 28.034374Q527.8125 28.690624 527.8125 30.128124L527.8125 35.55L526.2344 35.55L526.2344 29.4875Q526.2344 28.425 525.84375 27.909374Q525.4531 27.378124 524.5781 27.378124Q523.90625 27.378124 523.34375 27.7375Q522.78125 28.08125 522.5156 28.753124Q522.2656 29.425 522.2656 30.70625L522.2656 35.55L520.6875 35.55ZM534.09375 30.878124Q534.09375 28.284374 535.5469 27.034374Q536.75 26.003124 538.46875 26.003124Q540.40625 26.003124 541.625 27.26875Q542.84375 28.534374 542.84375 30.753124Q542.84375 32.55 542.2969 33.58125Q541.7656 34.6125 540.7344 35.190624Q539.7031 35.76875 538.46875 35.76875Q536.5156 35.76875 535.2969 34.51875Q534.09375 33.253124 534.09375 30.878124ZM535.71875 30.878124Q535.71875 32.675 536.5 33.565624Q537.28125 34.45625 538.46875 34.45625Q539.65625 34.45625 540.4375 33.565624Q541.21875 32.659374 541.21875 30.83125Q541.21875 29.096874 540.4219 28.20625Q539.6406 27.315624 538.46875 27.315624Q537.28125 27.315624 536.5 28.20625Q535.71875 29.096874 535.71875 30.878124ZM544.6719 35.55L544.6719 26.221874L546.09375 26.221874L546.09375 27.628124Q546.6406 26.64375 547.09375 26.33125Q547.5625 26.003124 548.1094 26.003124Q548.9219 26.003124 549.7344 26.51875L549.2031 27.9875Q548.6094 27.64375 548.03125 27.64375Q547.5156 27.64375 547.09375 27.95625Q546.6875 28.26875 546.5156 28.815624Q546.25 29.659374 546.25 30.659374L546.25 35.55L544.6719 35.55ZM550.6094 39.14375L550.4375 37.659374Q550.9531 37.8 551.34375 37.8Q551.875 37.8 552.1875 37.628124Q552.5 37.45625 552.7031 37.128124Q552.8594 36.89375 553.1875 35.95625Q553.2344 35.815624 553.3281 35.565624L549.7969 26.221874L551.5 26.221874L553.4375 31.628124Q553.8125 32.64375 554.1094 33.784374Q554.3906 32.690624 554.7656 31.659374L556.7656 26.221874L558.34375 26.221874L554.7969 35.70625Q554.21875 37.253124 553.90625 37.83125Q553.4844 38.6125 552.9375 38.971874Q552.3906 39.33125 551.6406 39.33125Q551.1719 39.33125 550.6094 39.14375Z" fill-rule="nonzero"/></svg>